<svg xmlns="http://www.w3.org/2000/svg" viewBox="0 0 500 500"><path d="M456.5 145.1c-1.7 13.8-10.1 23.4-19.5 32.8-69.6 69.3-139 138.8-208.4 208.4-9.8 9.8-21.2 14.8-35.1 13.6-8.8-.8-16.6-4-23.3-10-1-.9-2-1.8-2.9-2.8-36.8-36.8-73.6-73.5-110.3-110.3-14.6-14.6-17.3-35.2-7.1-52 13-21.4 43.1-26.2 62-9.7 3.6 3.2 7 6.7 10.4 10.1 24 23.9 47.9 47.9 71.8 71.9l3.4 3.4s2.5-2.4 3.6-3.5c61.1-61.1 122.2-122.2 183.2-183.4 9.5-9.5 20.5-14.4 34-13.6 19.1 1.2 34.7 15.4 37.7 34.4.1.9.5 1.8.7 2.7-.2 2.7-.2 5.4-.2 8z"/></svg>