<svg style="display: none;" aria-hidden="true" xmlns="http://www.w3.org/2000/svg" xmlns:xlink="http://www.w3.org/1999/xlink"><symbol viewBox="0 0 22 16" id="cart"><path d="M3.75 0C2.15 0 .95 1.2.95 2.8v10.5c0 1.5 1.2 2.7 2.8 2.7h14.5c1.5 0 2.8-1.2 2.8-2.8V2.8c-.1-1.6-1.3-2.8-2.8-2.8H3.75zm0 1.5h14.5c.7 0 1.3.6 1.3 1.3v.6c-.5-.3-.9-.4-1.3-.4H3.75c-.5 0-.9.1-1.3.3v-.5c0-.7.6-1.3 1.3-1.3zm0 3h14.5c.7 0 1.3.6 1.3 1.3v.6c-.5-.3-.9-.4-1.3-.4h-4.2c-.8 0-1.4.5-1.7 1.2-.2.6-.8 1-1.4 1-.6 0-1.2-.4-1.4-1-.3-.7-.9-1.2-1.7-1.2h-4.1c-.5 0-.9.1-1.3.3v-.5c0-.7.6-1.3 1.3-1.3zm0 3h4.2c.1 0 .2.1.2.2.4 1.2 1.5 2 2.8 2 1.3 0 2.4-.9 2.8-2 0-.1.1-.2.2-.2h4.2c.7 0 1.3.6 1.3 1.3v4.5c0 .7-.6 1.3-1.3 1.3H3.75c-.7 0-1.3-.6-1.3-1.3V8.8c0-.7.6-1.3 1.3-1.3z"/></symbol><symbol viewBox="0 0 500 500" id="check"><path d="M456.5 145.1c-1.7 13.8-10.1 23.4-19.5 32.8-69.6 69.3-139 138.8-208.4 208.4-9.8 9.8-21.2 14.8-35.1 13.6-8.8-.8-16.6-4-23.3-10-1-.9-2-1.8-2.9-2.8-36.8-36.8-73.6-73.5-110.3-110.3-14.6-14.6-17.3-35.2-7.1-52 13-21.4 43.1-26.2 62-9.7 3.6 3.2 7 6.7 10.4 10.1 24 23.9 47.9 47.9 71.8 71.9l3.4 3.4s2.5-2.4 3.6-3.5c61.1-61.1 122.2-122.2 183.2-183.4 9.5-9.5 20.5-14.4 34-13.6 19.1 1.2 34.7 15.4 37.7 34.4.1.9.5 1.8.7 2.7-.2 2.7-.2 5.4-.2 8z"/></symbol><symbol viewBox="0 0 20 22" id="confidentiality"><path d="M2.8.5C1.5.5.5 1.5.5 2.8v15.5c0 1.2 1 2.2 2.3 2.2h8.7c-.4-.4-.8-.9-1.1-1.5H2.8c-.4 0-.8-.4-.8-.8V2.8c0-.4.3-.8.8-.8h5.7v4.3c0 1.2 1 2.2 2.3 2.2h4.3V9c.5 0 .9.2 1.2.6.1.1.2.3.3.4V7.8c0-.2-.1-.4-.2-.5L9.8.7C9.6.6 9.4.5 9.3.5H2.8zM10 3.1L13.9 7h-3.2c-.4 0-.8-.4-.8-.8V3.1h.1zm5 6.9c-.1 0-.3.1-.4.2C13.2 12 11 12 11 12c-.3 0-.5.2-.5.5v3c0 4.9 4.4 6 4.4 6h.2s4.4-1.1 4.4-6v-3c0-.3-.3-.5-.5-.5 0 0-2.2 0-3.6-1.8-.1-.1-.3-.2-.4-.2zm-9.7 1c-.4 0-.8.4-.8.8s.4.7.8.7h4.2c0-.8.6-1.4 1.3-1.5H5.3zm0 3.5c-.4 0-.8.4-.8.8s.4.8.8.8h4.2v-1.6H5.3z"/></symbol><symbol viewBox="0 0 20 20" id="deposit"><path d="M10.85.78c-.9 0-1.7.5-2.1 1.3h-6c-1.4 0-2.7 1.2-2.7 2.7v2c0 .4.3.8.7.8.4 0 .8-.3.8-.7v-2.1c0-.7.6-1.2 1.2-1.2h5.7v13h-5.6c-.7 0-1.2-.6-1.2-1.2v-2.6c0-.4-.3-.8-.7-.8-.6.1-.9.4-.9.8v2.5c0 1.4 1.1 2.6 2.5 2.7 0 .6.4 1 1 1s1-.4 1-1h4.2c.4.8 1.4 1.4 2.3 1.2l4.6-.7c.2.3.5.5.8.5.4 0 .8-.3 1-.7h.2c1.3-.2 2.3-1.4 2.3-2.7V4.48c0-1.4-1-2.5-2.3-2.7l-6.6-1h-.2zm-.1 1.5h.2l6.6 1c.6.1 1.1.6 1.1 1.2v11.1c0 .6-.4 1.1-1.1 1.2l-6.6 1c-.4.1-.7-.2-.8-.5V3.08c-.1-.5.2-.8.6-.8zm3.8 3.3c-.5 0-1 .2-1.3.5-.3.3-.6.7-.7 1.1-.3.8-.5 1.8-.5 2.9 0 1.1.1 2 .5 2.9.2.4.4.8.7 1.1.3.3.8.5 1.3.5s1-.2 1.3-.5c.3-.3.6-.7.7-1.1.3-.8.5-1.8.5-2.9 0-1.1-.1-2-.5-2.9-.2-.4-.4-.8-.7-1.1-.3-.3-.8-.5-1.3-.5zm-10.2 1c-.4 0-.7.3-.7.8 0 .2.1.4.2.5l1.2 1.2H.85c-.5 0-.8.3-.8.7 0 .4.3.8.7.8h4.3l-1.3 1.2c-.3.3-.3.8 0 1.1.3.3.8.3 1.1 0l2.5-2.5c.3-.3.3-.8 0-1.1l-2.5-2.5c-.2-.2-.3-.2-.5-.2zm10.2.5c.1 0 .1 0 .3.1.1.1.2.3.3.6.2.6.4 1.4.4 2.3 0 .9-.1 1.7-.4 2.3-.1.3-.3.5-.4.6-.1.1-.2.1-.3.1-.1 0-.1 0-.3-.1-.1-.1-.2-.3-.4-.6-.2-.6-.4-1.4-.4-2.3 0-.9.1-1.7.4-2.3.1-.3.3-.5.4-.6.3-.1.3-.1.4-.1z"/></symbol><symbol viewBox="0 0 16 20" id="exit"><path d="M2.3.95c-1 0-1.8.8-1.8 1.8v10.8c.3-.4.8-.6 1.3-.6h.3v-3.2c0 .4.4.7.8.6.1 0 .2-.1.3-.1l2.3-1.8h1.4l-.9 3.6v.4c0 .6.4 1.2.9 1.4l2.6 1.4.4 3.1c0 .4.4.7.8.7s.7-.4.7-.8l-.5-3.5c0-.2-.1-.3-.3-.5l-1.7-1.6.6-2.4 1 1.4c.1.2.4.3.6.3h2.8v6.3c0 .4.3.8.8.8s.8-.3.8-.8V2.75c0-1-.8-1.8-1.8-1.8H2.3zm0 1.5h11.5c.1 0 .3.1.3.3v7.7h-2.4l-1.9-2.7v-.1c-.3-.4-.8-.7-1.3-.7H5.3c-.2 0-.3.1-.4.1l-2.6 1.9c-.2.2-.3.3-.3.5v-6.7c0-.2.1-.3.3-.3zm8.7 1.5c-.8 0-1.5.7-1.5 1.5s.7 1.5 1.5 1.5 1.5-.7 1.5-1.5-.7-1.5-1.5-1.5zm-5.8 9.5l-.7.5H1.8c-.4 0-.8.3-.8.8s.3.8.8.8h3c.2 0 .3-.1.4-.1l1.4-.5h-.1c-.6-.5-1.1-1-1.3-1.5zm-4.7 2.5v2.3c0 .4.3.7.8.7s.8-.3.8-.8v-1.8h-.3c-.5.1-1-.1-1.3-.4z"/></symbol><symbol viewBox="0 0 20 18" id="heart"><path d="M5.5.237c-3 0-5.5 2.5-5.5 5.5 0 2 1.5 4 3.4 6s4.2 4 6 5.8c.3.3.8.3 1.1 0 1.8-1.8 4.2-3.8 6-5.8 1.8-2 3.4-3.9 3.4-6 0-3-2.5-5.5-5.5-5.5-1.7 0-3.3.9-4.5 2.5-1.1-1.6-2.7-2.5-4.4-2.5zm0 1.5c1.5 0 2.7.8 3.9 2.7.2.4.7.5 1 .2.1-.1.2-.1.2-.2 1.2-1.9 2.4-2.7 3.9-2.7 2.2 0 4 1.8 4 4 0 1.2-1.2 3-3 4.9-1.6 1.7-3.7 3.5-5.5 5.3-1.8-1.8-3.8-3.6-5.5-5.3-1.8-1.9-3-3.7-3-4.9 0-2.2 1.8-4 4-4z"/></symbol><symbol viewBox="0 0 22 16" id="letter"><path d="M4.25 0C2.45 0 .95 1.5.95 3.3v9.5c0 1.7 1.5 3.2 3.3 3.2h13.5c1.8 0 3.3-1.5 3.3-3.3V3.3c-.1-1.8-1.6-3.3-3.3-3.3H4.25zm0 1.5h13.5c1 0 1.8.8 1.8 1.8v.6l-8.6 4.5-8.5-4.6v-.5c0-1 .8-1.8 1.8-1.8zm-1.8 4l8.1 4.4c.2.1.5.1.7 0l8.1-4.4v7.2c0 1-.8 1.8-1.8 1.8H4.25c-1 0-1.8-.8-1.8-1.8V5.5z"/></symbol><symbol viewBox="0 0 20 18" id="list"><path d="M4.95 0c-.7 0-1.3.3-1.8.8l-1.7 2c-.3.5-.5 1-.5 1.5v11c0 1.5 1.2 2.7 2.8 2.7h12.5c1.5 0 2.8-1.2 2.8-2.8v-11c0-.5-.2-1-.5-1.4l-1.7-2c-.6-.5-1.2-.8-1.9-.8h-10zm0 1.5h4.3v2h-6.4l1.4-1.7c.2-.2.4-.3.7-.3zm5.8 0h4.2c.2 0 .4.1.6.3l1.4 1.7h-6.2v-2zM2.45 5h15v10.3c0 .7-.6 1.3-1.3 1.3H3.75c-.7 0-1.3-.6-1.3-1.3V5zm5.3 2c-.5 0-.8.3-.8.7 0 .4.3.8.7.8h4.5c.4 0 .8-.3.8-.7 0-.5-.3-.8-.7-.8h-4.5z"/></symbol><symbol viewBox="0 0 18 20" id="location"><path d="M9 0C4.3 0 .5 3.8.5 8.5c0 2.1.8 4 2 5.5 0 0 3.6 4.1 4.9 5.4.9.8 2.2.8 3.1 0 1.5-1.4 5-5.4 5-5.4 1.3-1.5 2-3.4 2-5.5C17.5 3.8 13.7 0 9 0zm0 1.5c3.9 0 7 3.1 7 7 0 1.7-.6 3.3-1.7 4.5 0 0-3.5 4-4.8 5.3-.3.3-.7.3-1 0-1.1-1-4.8-5.2-4.8-5.3-1-1.2-1.7-2.8-1.7-4.5 0-3.9 3.1-7 7-7zm0 4c-.9 0-1.7.4-2.2 1-.6.5-.8 1.3-.8 2s.2 1.5.8 2c.5.6 1.3 1 2.2 1 .9 0 1.7-.4 2.2-1 .5-.6.8-1.3.8-2s-.2-1.5-.8-2c-.5-.6-1.3-1-2.2-1zM9 7c.6 0 .9.2 1.1.5.2.3.4.7.4 1 0 .3-.1.8-.4 1-.3.2-.5.5-1.1.5-.6 0-.9-.2-1.1-.5-.2-.3-.4-.6-.4-1s.1-.8.4-1c.3-.2.5-.5 1.1-.5z"/></symbol><symbol viewBox="0 0 20 20" id="marshmallow"><path d="M10 .5C7.5.5 5.2 1 3.5 1.7c-.9.4-1.6.9-2.1 1.5S.5 4.5.5 5.3v8.8c0 1.7 1.2 3.1 3 4 1.8.9 4 1.4 6.5 1.4s4.8-.5 6.5-1.5c1.7-1 3-2.3 3-4V5.2c0-.1 0-.2-.1-.3-.1-.6-.4-1.2-.9-1.7-.5-.6-1.3-1.1-2.1-1.5C14.8 1 12.5.5 10 .5zM10 2c2.3 0 4.4.4 5.9 1.1.7.3 1.3.7 1.6 1.1.3.4.5.7.5 1.1 0 .3-.1.7-.5 1.1a5 5 0 01-1.6 1.1c-1.5.6-3.6 1-5.9 1-2.3 0-4.4-.4-5.9-1.1-.7-.3-1.3-.7-1.6-1.1-.3-.4-.5-.7-.5-1 0-.3.1-.7.5-1.1.3-.4.9-.8 1.6-1.1C5.6 2.4 7.7 2 10 2zm0 2c-2.2 0-4 .6-3.9 1.3 0 .6 1.7 1.2 3.9 1.2s4-.6 3.9-1.3c0-.7-1.8-1.2-3.9-1.2zm8 3.9V14c0 .9-.7 1.9-2.2 2.7-1.4.8-3.5 1.3-5.8 1.3s-4.4-.5-5.8-1.3C2.8 15.9 2 14.9 2 14V7.9c.4.3.9.6 1.5.9 1.7.8 4 1.2 6.5 1.2s4.8-.5 6.5-1.2c.5-.3 1.1-.6 1.5-.9zM7.3 11.5c-.5 0-.8.3-.8.7 0 .4.3.8.8.8s.8-.3.8-.8-.4-.7-.8-.7zm5.5 0c-.4 0-.8.3-.8.8s.3.8.8.8.8-.3.8-.8-.4-.8-.8-.8zM7.3 14c-.4 0-.8.3-.8.7 0 .3.1.5.3.6 1.9 1.4 4.5 1.4 6.4 0 .3-.2.4-.7.2-1-.2-.3-.7-.4-1-.2-1.4 1-3.2 1-4.6 0-.2-.1-.4-.1-.5-.1z"/></symbol><symbol viewBox="0 0 14 2" id="minus"><path d="M13.3 1.75H.7c-.4 0-.7-.3-.7-.7 0-.5.3-.8.7-.8h12.5c.5 0 .8.3.8.7 0 .5-.3.8-.7.8z"/></symbol><symbol viewBox="0 0 18 19" id="pepper"><path d="M13.803 12c-2.4 2.6-6.4 5.2-10.1 5.9-2.7.6-3.7 0-3.7-.8-.1-1.2 2.4-1.7 5.4-4.9 3.2-3.4 3.3-7.4 5.6-9.2 1.7-1.3 3.5-.6 4.2 0 3.5 2.8.6 6.9-1.4 9z" fill="url(#lpaint0_radial_203_5684)"/><path d="M15.803 3.1c.4-.7 1-2.2 1.1-2.9l-.8-.2c-.2.8-.7 2.1-1.1 2.5-2.2-1.3-3.7.3-4.9.1 1.5 1.4 3 .6 3 .6-.6 1 .1 2.5.1 2.5s1.5-.1 2.3-1.1c-.1 2.3 1.9 2.4 1.9 2.4-.6-1-.2-2.7-1.6-3.9z" fill="url(#lpaint1_radial_203_5684)"/><path d="M7.103 11.5c-2.6 3.2-4.4 3.8-4.3 4.4 0 .3 1.1 0 2.5-.8s3-2 4.1-3.6c1.1-1.6 2-3.1 2.3-4.2.3-1.1.3-1.9-.4-2-.8-.3-1.1.4-1.6 1.5-.5 1.2-1.1 2.8-2.6 4.7z" fill="#E51818"/><path d="M11.303 5.1c.7.1.8.9.4 2l-.3.9c-.4 1-1.1 2.2-2 3.4-.7 1-1.6 1.8-2.5 2.5-.5.4-1.1.8-1.6 1.1-1.3.8-2.4 1.1-2.5.8 0-.3.4-.6 1.1-1.2.8-.6 1.9-1.6 3.2-3.2.2-.2.4-.5.5-.7 1-1.4 1.5-2.6 1.9-3.6.1 0 .2-.1.2-.3.5-1.1.8-1.7 1.6-1.7z" fill="#E51919"/><path d="M11.302 5.2c.7.1.8.9.4 2l-.3.9c-.4 1-1.1 2.2-2 3.4-.7 1-1.6 1.8-2.5 2.5-.5.4-1.1.8-1.6 1.1-1.3.8-2.4 1.1-2.4.8 0-.3.4-.6 1.1-1.2.8-.6 1.8-1.6 3.1-3.2.2-.2.4-.5.5-.7 1-1.4 1.5-2.6 1.9-3.6.1-.1.2-.2.2-.4.5-1.1.8-1.7 1.6-1.6 0-.1 0 0 0 0z" fill="#E51919"/><path d="M11.302 5.2c.7.1.8.9.4 2l-.3.9c-.4 1-1.1 2.2-2 3.4-.7 1-1.6 1.8-2.5 2.5-.5.4-1.1.8-1.6 1.1-1.3.8-2.4 1.1-2.4.8 0-.3.4-.6 1.1-1.2.8-.6 1.8-1.6 3.1-3.2.2-.2.4-.5.5-.7 1-1.4 1.5-2.6 1.9-3.5.1-.2.2-.3.2-.5.5-1.1.8-1.7 1.6-1.6z" fill="#E51A1A"/><path d="M11.302 5.2c.7.1.8.9.4 2l-.3.9c-.4 1-1.1 2.1-2 3.3-.7 1-1.6 1.8-2.5 2.5-.5.4-1.1.8-1.6 1.1-1.3.8-2.4 1.1-2.4.8 0-.3.4-.6 1.1-1.2.8-.6 1.9-1.6 3.2-3.2.2-.2.4-.5.5-.7 1-1.4 1.5-2.6 1.9-3.5 0-.1.1-.2.1-.4.5-1.1.8-1.7 1.6-1.6z" fill="#E51B1B"/><path d="M11.302 5.2c.7.1.8.9.4 2l-.3.9c-.4 1-1.1 2.1-2 3.3-.7.9-1.6 1.8-2.5 2.5-.5.4-1.1.8-1.6 1.1-1.3.7-2.3 1-2.4.8 0-.3.4-.6 1.1-1.2.8-.6 1.9-1.6 3.2-3.2.2-.2.4-.5.5-.7 1-1.4 1.5-2.6 1.9-3.5 0-.1.1-.2.1-.4.5-1.1.8-1.7 1.6-1.6z" fill="#E51C1C"/><path d="M11.302 5.2c.7.1.8.9.4 2l-.3.9c-.4 1-1.1 2.1-2 3.3-.7.9-1.6 1.8-2.4 2.5-.5.4-1.1.8-1.6 1.1-1.4.7-2.4 1-2.5.7 0-.3.4-.6 1.1-1.2.8-.5 1.9-1.5 3.2-3.1.2-.2.4-.5.5-.7 1-1.3 1.5-2.6 1.9-3.5 0-.1.1-.2.1-.3.5-1.2.8-1.8 1.6-1.7z" fill="#E51C1C"/><path d="M11.303 5.2c.7.1.7.9.4 2l-.3.9c-.4 1-1.1 2.1-2 3.3-.7.9-1.6 1.8-2.4 2.5-.5.4-1.1.8-1.6 1.1-1.3.7-2.4 1-2.4.7 0-.3.4-.6 1.1-1.2.7-.5 1.8-1.5 3.1-3.1.2-.2.4-.5.5-.7.9-1.3 1.5-2.6 1.9-3.5 0-.1.1-.2.1-.3.5-1.2.8-1.8 1.6-1.7z" fill="#E61D1D"/><path d="M11.303 5.2c.7.1.7.9.4 2-.1.3-.2.5-.3.9-.4 1-1.1 2.1-2 3.3-.7.9-1.5 1.8-2.4 2.5-.5.4-1.1.8-1.6 1.1-1.3.7-2.4 1-2.4.7 0-.3.4-.6 1.1-1.2.8-.6 1.8-1.6 3.1-3.1.2-.2.4-.5.5-.7.9-1.3 1.5-2.6 1.9-3.5 0-.1.1-.2.1-.3.5-1.2.8-1.8 1.6-1.7z" fill="#E61E1E"/><path d="M11.303 5.2c.7.1.7.9.4 2-.1.3-.2.5-.3.8-.4 1-1.1 2.1-2 3.3-.7.9-1.5 1.8-2.4 2.5-.5.4-1.1.8-1.6 1.1-1.3.7-2.4 1.1-2.4.8 0-.3.4-.6 1.1-1.2.8-.6 1.8-1.6 3.1-3.1.2-.2.4-.5.5-.7.9-1.3 1.5-2.6 1.9-3.5 0-.1.1-.2.1-.3.5-1.2.8-1.8 1.6-1.7z" fill="#E61E1E"/><path d="M11.303 5.2c.7.1.7.9.4 2-.1.3-.2.5-.3.8-.4 1-1.1 2.1-2 3.3-.7.9-1.5 1.8-2.4 2.5-.5.4-1.1.8-1.6 1.1-1.3.7-2.3 1.1-2.4.8 0-.3.4-.6 1.1-1.2.8-.6 1.9-1.5 3.1-3.1.2-.2.4-.5.5-.7.9-1.3 1.5-2.5 1.9-3.5 0-.1.1-.2.1-.3.5-1.1.8-1.8 1.6-1.7z" fill="#E61F1F"/><path d="M11.303 5.2c.6.1.7.9.4 2-.1.3-.2.5-.3.8-.4 1-1.1 2.1-2 3.3-.7.9-1.5 1.8-2.4 2.4-.5.4-1.1.8-1.6 1.1-1.3.8-2.3 1.1-2.4.8 0-.3.4-.6 1.1-1.2.8-.5 1.9-1.4 3.1-3 .2-.2.4-.5.5-.7.9-1.3 1.5-2.5 1.9-3.5 0-.1.1-.2.1-.3.5-1.1.8-1.8 1.6-1.7z" fill="#E62020"/><path d="M11.303 5.2c.6.1.7.9.4 2-.1.3-.2.5-.3.8-.4 1-1.1 2.1-1.9 3.3-.7.9-1.5 1.8-2.4 2.4-.5.4-1.1.8-1.6 1.1-1.3.8-2.3 1.1-2.4.8 0-.3.4-.6 1.1-1.2.8-.6 1.8-1.6 3.1-3.1.2-.2.4-.5.5-.7.9-1.3 1.5-2.5 1.9-3.5-.1 0 0-.1 0-.2.5-1.1.8-1.8 1.6-1.7z" fill="#E62121"/><path d="M11.303 5.2c.6.1.7.9.4 2-.1.3-.2.5-.3.8-.4 1-1.1 2.1-1.9 3.3-.7.9-1.5 1.8-2.4 2.4-.5.4-1.1.8-1.6 1.1-1.3.8-2.3 1.1-2.4.8 0-.3.4-.6 1.1-1.2.8-.6 1.8-1.6 3-3.1.2-.2.4-.5.5-.7.9-1.3 1.5-2.5 1.8-3.5.2 0 .2-.1.2-.2.5-1.1.8-1.8 1.6-1.7z" fill="#E62121"/><path d="M11.303 5.2c.6.1.7.9.4 2-.1.3-.2.5-.3.8-.4 1-1.1 2.1-1.9 3.3-.8.9-1.6 1.7-2.5 2.4-.5.4-1.1.8-1.6 1.1-1.3.8-2.3 1.1-2.4.8 0-.3.4-.6 1.1-1.2.8-.6 1.8-1.6 3-3.1.2-.2.3-.5.5-.7.9-1.3 1.5-2.5 1.8-3.5.3 0 .3-.1.4-.2.4-1.1.7-1.8 1.5-1.7z" fill="#E62222"/><path d="M11.303 5.2c.6.1.7.9.4 2-.1.3-.2.5-.3.8-.4 1-1.1 2.1-1.9 3.3-.8.9-1.6 1.7-2.5 2.4-.5.4-1.1.8-1.5 1.1-1.3.8-2.3 1.1-2.4.8 0-.3.4-.6 1.1-1.1.8-.6 1.8-1.6 3-3.1.2-.2.3-.5.5-.7.9-1.3 1.4-2.5 1.8-3.5.2-.1.2-.2.3-.3.4-1.1.7-1.8 1.5-1.7z" fill="#E62323"/><path d="M11.303 5.2c.6.1.7.9.4 2-.1.3-.2.5-.3.8-.4 1-1.1 2.1-1.9 3.3-.8.9-1.6 1.7-2.5 2.4-.5.4-1 .8-1.5 1.1-1.3.8-2.3 1.1-2.3.8 0-.3.4-.6 1.1-1.1.7-.6 1.8-1.6 3-3.1.2-.2.3-.5.5-.7.9-1.3 1.4-2.5 1.8-3.4.1-.2.1-.3.2-.4.4-1.1.7-1.8 1.5-1.7z" fill="#E62323"/><path d="M11.303 5.2c.6.1.7.9.4 2-.1.3-.2.5-.3.8-.4 1-1.1 2.1-1.9 3.2-.7.9-1.5 1.7-2.4 2.4-.5.4-1 .8-1.5 1.1-1.3.8-2.3 1.1-2.3.8 0-.3.4-.6 1.1-1.1.7-.6 1.8-1.5 3-3.1.2-.2.3-.5.5-.7.9-1.3 1.4-2.5 1.8-3.4 0-.1 0-.2.1-.3.4-1.1.7-1.8 1.5-1.7z" fill="#E62424"/><path d="M11.303 5.2c.6.1.7.9.3 2-.1.3-.2.5-.3.8-.4 1-1.1 2.1-1.9 3.2-.7.9-1.5 1.7-2.4 2.4-.5.4-1 .8-1.5 1.1-1.3.8-2.3 1.1-2.3.8 0-.3.4-.6 1.1-1.1.7-.6 1.8-1.5 3-3.1.2-.2.3-.5.5-.7.9-1.3 1.4-2.5 1.8-3.4.1-.1.1-.2.2-.3.4-1.1.7-1.8 1.5-1.7z" fill="#E62525"/><path d="M11.303 5.2c.6.1.7.9.3 2-.1.3-.2.5-.3.8-.4 1-1.1 2.1-1.9 3.2-.7.9-1.5 1.7-2.4 2.4-.5.4-1 .8-1.5 1.1-1.3.8-2.3 1.1-2.3.8 0-.3.4-.6 1.1-1.1.7-.6 1.8-1.5 3-3.1.2-.2.3-.5.5-.7.9-1.3 1.4-2.5 1.8-3.4.1-.1.1-.2.2-.3.4-1.1.7-1.8 1.5-1.7z" fill="#E72626"/><path d="M11.303 5.2c.6.1.7.9.3 2-.1.3-.2.5-.3.8-.4.9-1.1 2.1-1.9 3.2-.7.9-1.5 1.7-2.3 2.4-.5.4-1 .8-1.5 1.1-1.2.8-2.3 1.1-2.3.8 0-.3.4-.6 1.1-1.1.7-.6 1.8-1.5 3-3.1.2-.2.3-.5.5-.7.9-1.3 1.4-2.5 1.8-3.4 0-.1 0-.2.1-.3.4-1.1.7-1.8 1.5-1.7z" fill="#E72626"/><path d="M11.303 5.2c.6.1.7.9.3 1.9-.1.3-.2.5-.3.8-.4.9-1.1 2.1-1.9 3.2-.7.9-1.5 1.7-2.3 2.4-.5.4-1 .8-1.5 1.1-1.2.8-2.3 1.1-2.3.8 0-.3.4-.6 1.1-1.1.7-.6 1.8-1.5 3-3.1.2-.2.3-.4.5-.7.9-1.3 1.4-2.5 1.8-3.4 0 0 0-.1.1-.2.4-1.1.7-1.8 1.5-1.7z" fill="#E72727"/><path d="M11.303 5.2c.6.1.7.9.3 1.9-.1.3-.2.5-.3.8-.4.9-1.1 2.1-1.9 3.2-.7.9-1.5 1.7-2.3 2.4-.5.4-1 .8-1.5 1.1-1.2.7-2.2 1.1-2.3.8 0-.3.4-.6 1.1-1.1.7-.6 1.8-1.5 3-3.1.2-.2.3-.4.5-.7.9-1.3 1.4-2.5 1.8-3.4 0 0 0-.1.1-.2.4-1.1.7-1.8 1.5-1.7z" fill="#E72828"/><path d="M11.303 5.2c.6.1.7.9.3 1.9-.1.3-.2.5-.3.8-.4.9-1.1 2-1.9 3.2-.6.9-1.5 1.7-2.3 2.4-.5.4-1 .8-1.5 1.1-1.2.7-2.2 1.1-2.3.8 0-.3.4-.6 1.1-1.1.7-.6 1.8-1.5 3-3.1.2-.2.3-.4.5-.7.9-1.3 1.4-2.5 1.8-3.4 0-.1.1-.2.1-.3.4-1 .7-1.6 1.5-1.6z" fill="#E72828"/><path d="M11.303 5.2c.6.1.7.9.3 1.9-.1.3-.2.5-.3.8-.4.9-1.1 2-1.9 3.2-.6.9-1.5 1.7-2.3 2.4-.5.4-1 .8-1.5 1.1-1.2.7-2.2 1.1-2.3.8 0-.3.4-.6 1.1-1.1.7-.6 1.8-1.5 3-3.1.2-.2.3-.4.5-.7.9-1.3 1.4-2.5 1.8-3.4 0-.1.1-.2.1-.3.4-1 .7-1.6 1.5-1.6z" fill="#E72929"/><path d="M11.303 5.2c.6.1.7.9.3 1.9-.1.3-.2.5-.3.8-.4.9-1.1 2-1.9 3.2-.6.9-1.5 1.7-2.3 2.4-.5.4-1 .8-1.5 1.1-1.2.7-2.2 1.1-2.3.8 0-.3.4-.6 1.1-1.1.7-.6 1.8-1.5 2.9-3.1.2-.2.3-.4.5-.7.9-1.3 1.4-2.5 1.8-3.4 0-.1.1-.2.1-.3.5-1 .9-1.6 1.6-1.6z" fill="#E72A2A"/><path d="M11.303 5.2c.6.1.7.9.3 1.9-.1.3-.2.5-.3.8-.4.9-1.1 2-1.9 3.2-.6.9-1.5 1.7-2.3 2.4-.5.4-1 .8-1.5 1.1-1.2.7-2.2 1.1-2.3.8 0-.3.4-.6 1.1-1.1.7-.6 1.8-1.5 2.9-3.1.2-.2.3-.4.5-.7.9-1.3 1.4-2.5 1.8-3.4 0-.1.1-.2.1-.3.5-1 .9-1.6 1.6-1.6z" fill="#E72B2B"/><path d="M11.303 5.3c.6.1.7.9.3 1.9-.1.3-.2.5-.3.8-.4.9-1 2-1.9 3.2-.6.9-1.5 1.7-2.3 2.4-.5.4-1 .8-1.5 1.1-1.2.7-2.2 1.1-2.3.8 0-.3.4-.6 1.1-1.1.7-.6 1.8-1.5 2.9-3 .2-.2.3-.4.5-.7.9-1.3 1.4-2.5 1.8-3.4 0-.1.1-.2.1-.3.5-1.2.9-1.8 1.6-1.7 0-.1 0-.1 0 0z" fill="#E72B2B"/><path d="M11.302 5.3c.6.1.7.9.3 1.9-.1.3-.2.5-.3.8-.4.9-1 2-1.9 3.2-.6.8-1.4 1.6-2.2 2.3-.5.4-1 .8-1.5 1.1-1.2.7-2.2 1.1-2.3.8 0-.3.4-.6 1.1-1.1.7-.6 1.7-1.5 2.9-3 .2-.2.3-.4.5-.7.9-1.3 1.4-2.4 1.8-3.4 0-.1.1-.2.1-.3.4-1.1.8-1.7 1.5-1.6z" fill="#E72C2C"/><path d="M11.302 5.3c.6.1.7.8.3 1.9-.1.3-.2.5-.3.8-.4.9-1 2-1.9 3.2-.6.8-1.4 1.6-2.2 2.3-.5.4-1 .8-1.5 1.1-1.2.7-2.2 1.1-2.3.8 0-.3.4-.6 1.1-1.1.7-.6 1.7-1.5 2.9-3 .2-.2.3-.4.5-.7.9-1.3 1.4-2.4 1.8-3.4 0-.1.1-.2.1-.3.5-1.1.8-1.7 1.5-1.6z" fill="#E72D2D"/><path d="M11.303 5.3c.6.1.7.8.3 1.9-.1.3-.2.5-.3.8-.4.9-1 2-1.9 3.1-.6.9-1.4 1.7-2.2 2.4-.5.4-1 .8-1.5 1-1.2.7-2.2 1.1-2.2.8 0-.3.4-.6 1.1-1.1.7-.6 1.7-1.5 2.9-3 .2-.2.3-.4.5-.7.9-1.3 1.4-2.4 1.8-3.3 0-.1.1-.2.1-.3.4-1.1.7-1.7 1.4-1.6z" fill="#E72D2D"/><path d="M11.303 5.3c.6.1.7.8.3 1.9-.1.3-.2.5-.3.8-.4.9-1 2-1.8 3.1-.7.9-1.5 1.7-2.3 2.4-.5.4-1 .8-1.5 1-1.2.7-2.2 1.1-2.2.8 0-.3.4-.6 1.1-1.1.7-.6 1.7-1.5 2.9-3 .2-.2.3-.4.5-.7.9-1.3 1.4-2.4 1.8-3.3 0-.1.1-.2.1-.3.4-1.1.7-1.7 1.4-1.6z" fill="#E72E2E"/><path d="M11.303 5.3c.6.1.6.8.3 1.9-.1.2-.2.5-.3.8-.4.9-1 2-1.8 3.1-.7.9-1.5 1.7-2.3 2.4-.5.4-1 .8-1.5 1-1.2.7-2.2 1.1-2.2.8 0-.3.4-.6 1.1-1.1.7-.6 1.7-1.5 2.9-3 .2-.2.3-.4.5-.7.9-1.3 1.4-2.4 1.8-3.3 0-.1.1-.2.1-.3.4-1.1.7-1.7 1.4-1.6z" fill="#E82F2F"/><path d="M11.303 5.3c.6.1.6.8.3 1.9-.1.2-.2.5-.3.8-.4.9-1 2-1.8 3.1-.7.9-1.5 1.7-2.3 2.3-.5.4-1 .8-1.5 1-1.2.7-2.1 1-2.2.8 0-.3.4-.6 1.1-1.1.7-.6 1.7-1.5 2.9-3 .2-.2.3-.4.5-.7.9-1.3 1.4-2.4 1.8-3.3 0-.1.1-.2.1-.3.4-1 .7-1.6 1.4-1.5z" fill="#E83030"/><path d="M11.303 5.3c.6.1.6.8.3 1.9-.1.2-.2.5-.3.8-.4.9-1 2-1.8 3.1-.7.9-1.5 1.7-2.3 2.3-.5.4-1 .8-1.5 1-1.2.7-2.1 1-2.2.8 0-.3.4-.6 1.1-1.1.7-.6 1.7-1.5 2.9-3 .2-.2.3-.4.5-.7.9-1.3 1.4-2.4 1.7-3.3 0-.1.1-.2.1-.3.5-1 .8-1.6 1.5-1.5-.1 0 0 0 0 0z" fill="#E83030"/><path d="M11.303 5.3c.6.1.6.8.3 1.9-.1.2-.2.5-.3.8-.4.9-1 2-1.8 3.1-.7.9-1.5 1.6-2.3 2.3-.5.4-1 .8-1.5 1-1.2.7-2.1 1-2.2.8 0-.3.4-.6 1.1-1.1.7-.6 1.7-1.5 2.9-3 .2-.2.3-.4.5-.7.9-1.3 1.4-2.4 1.7-3.3 0-.1.1-.2.1-.3.5-1 .8-1.6 1.5-1.5-.1 0 0 0 0 0z" fill="#E83131"/><path d="M11.303 5.3c.6.1.6.8.3 1.9-.1.2-.2.5-.3.8-.4.9-1 2-1.8 3.1-.6.9-1.4 1.7-2.2 2.3-.5.4-1 .8-1.4 1-1.2.7-2.1 1-2.2.8 0-.3.4-.6 1-1.1.7-.6 1.7-1.5 2.9-3 0-.1.2-.4.4-.6.9-1.3 1.4-2.4 1.7-3.3 0-.1.1-.2.1-.3.5-1.1.8-1.7 1.5-1.6-.1 0 0 0 0 0z" fill="#E83232"/><path d="M11.303 5.3c.6.1.6.8.3 1.9-.1.2-.2.5-.3.8-.4.9-1 2-1.8 3.1-.6.9-1.4 1.7-2.2 2.3-.5.4-1 .8-1.4 1-1.2.7-2.1 1-2.2.9 0-.3.4-.6 1-1.1.7-.6 1.7-1.5 2.8-3 .2-.2.3-.5.5-.7.9-1.3 1.4-2.4 1.7-3.3 0-.1.1-.2.1-.3.5-1 .8-1.7 1.5-1.6-.1 0 0 0 0 0z" fill="#E83333"/><path d="M11.303 5.3c.6.1.6.8.3 1.9-.1.2-.2.5-.3.8-.4.9-1 2-1.8 3.1-.6.9-1.4 1.7-2.2 2.3-.5.4-1 .7-1.4 1-1.2.7-2.1 1-2.2.9 0-.3.4-.6 1-1.1.7-.6 1.7-1.5 2.8-3 .2-.2.3-.4.5-.6.9-1.3 1.4-2.4 1.7-3.3 0-.1.1-.2.1-.3.5-1.1.8-1.8 1.5-1.7-.1 0 0 0 0 0z" fill="#E83333"/><path d="M11.303 5.3c.6.1.6.8.3 1.9-.1.2-.2.5-.3.8-.4.9-1 2-1.8 3.1-.6.9-1.4 1.6-2.2 2.3-.5.4-1 .7-1.4 1-1.1.7-2.1 1-2.2.9 0-.3.4-.6 1-1.1.7-.6 1.7-1.5 2.8-3 .2-.2.3-.4.5-.6.9-1.3 1.4-2.4 1.7-3.3 0-.1.1-.2.1-.3.5-1.1.8-1.8 1.5-1.7-.1 0 0 0 0 0z" fill="#E83434"/><path d="M11.303 5.3c.6.1.6.8.3 1.9-.1.2-.2.5-.3.8-.4.9-1 2-1.8 3.1-.6.9-1.4 1.6-2.2 2.3-.5.4-1 .7-1.4 1-1.1.7-2.1 1-2.2.9 0-.3.4-.6 1-1.1.7-.6 1.7-1.5 2.8-3 .2-.2.3-.4.5-.6.9-1.2 1.3-2.4 1.7-3.3 0-.1.1-.2.1-.3.5-1.1.8-1.8 1.5-1.7-.1 0 0 0 0 0z" fill="#E83535"/><path d="M11.303 5.3c.6.1.6.8.3 1.9-.1.2-.2.5-.3.8-.4.9-1 2-1.8 3.1-.6.9-1.4 1.6-2.2 2.3-.5.4-1 .7-1.4 1-1.1.7-2.1 1-2.2.9 0-.3.4-.6 1-1.1.7-.6 1.7-1.5 2.8-3 .2-.2.3-.4.5-.6.9-1.2 1.3-2.4 1.7-3.3 0-.1.1-.2.1-.3.5-1.1.8-1.8 1.5-1.7-.1 0 0 0 0 0z" fill="#E83535"/><path d="M11.303 5.3c.5.1.6.8.3 1.9-.1.2-.2.5-.3.8-.4.9-1 1.9-1.8 3.1-.6.9-1.4 1.6-2.2 2.3-.5.4-1 .7-1.4 1-1.1.7-2.1 1-2.2.9 0-.3.4-.6 1-1.1.7-.6 1.7-1.5 2.8-3 .2-.2.3-.4.5-.6.9-1.2 1.3-2.4 1.7-3.3 0-.1.1-.2.1-.3.5-1.1.8-1.8 1.5-1.7-.1 0 0 0 0 0z" fill="#E83636"/><path d="M11.303 5.3c.5.1.6.8.3 1.9-.1.2-.2.5-.3.8-.4.9-1 1.9-1.8 3-.6.9-1.4 1.6-2.2 2.3-.5.4-1 .7-1.4 1-1.1.7-2.1 1-2.2.9 0-.3.4-.6 1-1.1.7-.6 1.7-1.5 2.8-3 .2-.2.3-.4.5-.6.9-1.2 1.3-2.4 1.7-3.3 0-.1.1-.2.1-.3.5-1 .8-1.7 1.5-1.6-.1 0 0 0 0 0z" fill="#E83737"/><path d="M11.303 5.3c.5.1.6.8.3 1.9-.1.2-.2.5-.3.8-.4.9-1 1.9-1.8 3-.6.9-1.4 1.6-2.2 2.3-.5.4-1 .7-1.4 1-1.1.7-2 1-2.1.9 0-.3.4-.6 1-1.1.7-.6 1.7-1.5 2.8-3 .2-.2.3-.4.5-.6.8-1.2 1.3-2.4 1.7-3.2 0-.1.1-.2.1-.3.4-1.1.7-1.8 1.4-1.7-.1 0 0 0 0 0z" fill="#E93838"/><path d="M11.303 5.3c.5.1.6.8.3 1.8-.1.2-.2.5-.3.8-.4.9-1 1.9-1.8 3-.6.9-1.4 1.6-2.2 2.3-.5.4-.9.7-1.4 1-1.1.7-2 1-2.1.9 0-.3.4-.6 1-1.1.7-.6 1.7-1.5 2.8-3 .2-.2.3-.4.5-.6.8-1.2 1.3-2.4 1.7-3.2 0-.1.1-.2.1-.3.4-1 .7-1.7 1.4-1.6-.1 0 0 0 0 0z" fill="#E93838"/><path d="M11.303 5.3c.5.1.6.8.3 1.8-.1.2-.2.5-.3.8-.4.9-1 1.9-1.8 3-.6.8-1.4 1.6-2.2 2.3-.5.4-.9.7-1.4 1-1.1.7-2 1-2.1.9 0-.3.4-.5 1-1.1.7-.6 1.7-1.5 2.8-2.9.2-.2.3-.4.5-.6.8-1.2 1.3-2.3 1.7-3.2 0-.1.1-.2.1-.3.4-1.1.7-1.7 1.4-1.7-.1 0 0 0 0 0z" fill="#E93939"/><path d="M11.302 5.3c.5.1.6.8.3 1.8-.1.2-.2.5-.3.8-.4.9-1 1.9-1.8 3-.6.8-1.4 1.6-2.1 2.3-.5.4-.9.7-1.4 1-1.1.7-2 1-2.1.9 0-.3.4-.5 1-1.1.7-.6 1.7-1.5 2.8-2.9.2-.2.3-.4.5-.6.8-1.2 1.3-2.3 1.7-3.2 0-.1.1-.2.1-.3.3-1.1.6-1.7 1.3-1.7-.1 0 0 0 0 0z" fill="#E93A3A"/><path d="M11.302 5.3c.5.1.6.8.3 1.8-.1.2-.2.5-.3.8-.4.9-1 1.9-1.8 3-.6.8-1.4 1.6-2.1 2.3-.5.4-.9.7-1.4 1-1.1.7-2 1-2.1.9 0-.3.4-.5 1-1.1.7-.6 1.7-1.5 2.7-2.9.2-.2.3-.4.5-.6.8-1.2 1.3-2.3 1.7-3.2 0-.1.1-.2.1-.3.4-1.1.7-1.7 1.4-1.7-.1 0 0 0 0 0z" fill="#E93A3A"/><path d="M11.302 5.3c.5.1.6.8.3 1.8-.1.2-.2.5-.3.8-.4.9-1 1.9-1.8 3-.6.8-1.4 1.6-2.1 2.3-.5.4-.9.7-1.4 1-1.1.7-2 1-2.1.9 0-.3.4-.5 1-1.1.7-.6 1.7-1.5 2.7-2.9.2-.2.3-.4.5-.6.8-1.2 1.3-2.3 1.7-3.2 0-.1.1-.2.1-.3.4-1.1.7-1.7 1.4-1.7-.1 0 0 0 0 0z" fill="#E93B3B"/><path d="M11.302 5.3c.5.1.6.8.2 1.8-.1.2-.2.5-.3.8-.4.9-1 1.9-1.7 3-.6.8-1.3 1.6-2.1 2.3-.5.4-.9.7-1.4 1-1.1.7-2 1-2.1.9 0-.3.4-.5 1-1.1.7-.6 1.7-1.5 2.7-2.9.2-.2.3-.4.5-.6.8-1.2 1.3-2.3 1.7-3.2 0-.1.1-.2.1-.3.4-1.1.7-1.7 1.4-1.7-.1 0 0 0 0 0z" fill="#E93C3C"/><path d="M11.302 5.3c.5.1.6.8.2 1.8-.1.2-.2.5-.3.8-.4.9-1 1.9-1.7 3-.6.8-1.3 1.6-2.1 2.3-.5.4-.9.7-1.4 1-1.1.7-2 1-2.1.9 0-.3.4-.5 1-1.1.7-.6 1.7-1.5 2.7-2.9.2-.2.3-.4.5-.6.8-1.2 1.3-2.3 1.7-3.2 0-.1.1-.2.1-.3.4-1.1.7-1.7 1.4-1.7-.1 0 0 0 0 0z" fill="#E93D3D"/><path d="M11.302 5.4c.5.1.6.8.2 1.8-.1.2-.2.5-.3.8-.4.9-1 1.9-1.7 3-.6.8-1.3 1.6-2.1 2.3-.5.4-.9.7-1.4 1-1.1.7-2 1-2.1.9 0-.3.4-.5 1-1.1.7-.6 1.7-1.5 2.7-2.9.2-.2.3-.4.5-.6.8-1.2 1.3-2.3 1.7-3.2 0-.1.1-.2.1-.3.4-1.2.7-1.8 1.4-1.7-.1-.1 0-.1 0 0z" fill="#E93D3D"/><path d="M11.302 5.4c.5.1.6.8.2 1.8-.1.2-.2.5-.3.8-.4.9-1 1.9-1.7 3-.6.8-1.3 1.6-2.1 2.2-.5.4-.9.7-1.4 1-1.1.7-2 1-2.1.9 0-.3.4-.5 1-1.1.7-.6 1.7-1.5 2.7-2.9.2-.2.3-.4.4-.6.8-1.2 1.3-2.3 1.7-3.2 0-.1.1-.2.1-.3.5-1.1.8-1.7 1.5-1.6-.1-.1 0 0 0 0z" fill="#E93E3E"/><path d="M11.302 5.4c.5.1.6.8.2 1.8-.1.2-.2.5-.3.8-.4.9-1 1.9-1.7 3-.6.8-1.3 1.6-2.1 2.2-.5.4-.9.7-1.4 1-1.1.7-2 1-2.1.9 0-.3.4-.5 1-1.1.7-.6 1.6-1.5 2.7-2.9.2-.2.3-.4.4-.6.8-1.2 1.3-2.3 1.7-3.2 0-.1.1-.2.1-.3.5-1.1.8-1.7 1.5-1.6-.1 0 0 0 0 0z" fill="#E93F3F"/><path d="M11.302 5.4c.5.1.6.8.2 1.8-.1.2-.2.5-.3.8-.4.9-1 1.9-1.7 3-.6.8-1.3 1.6-2.1 2.2-.5.4-.9.7-1.4 1-1.1.7-2 1-2.1.9 0-.3.4-.5 1-1.1.7-.6 1.6-1.5 2.7-2.9.2-.2.3-.4.4-.6.8-1.2 1.3-2.3 1.6-3.2 0-.1.1-.2.1-.3.6-1.1.9-1.7 1.6-1.6-.1 0 0 0 0 0z" fill="#E93F3F"/><path d="M11.303 5.4c.5.1.6.8.2 1.8-.1.2-.2.5-.3.8-.4.9-1 1.9-1.7 2.9-.6.8-1.3 1.6-2.1 2.2-.5.4-.9.7-1.4 1-1 .7-1.9 1-2 .9 0-.3.4-.5 1-1.1.7-.6 1.6-1.5 2.7-2.9.2-.2.3-.4.4-.6.8-1.2 1.3-2.3 1.6-3.2 0-.1.1-.2.1-.3.5-1 .8-1.6 1.5-1.5-.1 0 0 0 0 0z" fill="#E94040"/><path d="M11.303 5.4c.5.1.5.8.2 1.8-.1.2-.2.5-.3.8-.4.9-1 1.9-1.7 2.9-.6.8-1.3 1.6-2.1 2.2-.5.4-.9.7-1.3 1-1.1.7-1.9 1-2 .9 0-.3.4-.5 1-1.1.7-.6 1.6-1.5 2.7-2.9.2-.2.3-.4.4-.6.8-1.2 1.3-2.3 1.6-3.1 0-.1.1-.2.1-.3.4-1.1.7-1.7 1.4-1.6-.1 0 0 0 0 0z" fill="#EA4141"/><path d="M11.303 5.4c.5.1.5.8.2 1.8-.1.2-.2.5-.3.7-.4.9-1 1.9-1.7 2.9-.6.8-1.3 1.6-2.1 2.2-.4.4-.9.7-1.3 1-1 .7-1.9 1-2 .9 0-.3.4-.5 1-1.1.7-.6 1.6-1.5 2.7-2.9.2-.2.3-.4.4-.6.8-1.1 1.2-2.2 1.6-3.1 0-.1.1-.2.1-.3.4-1 .7-1.6 1.4-1.5-.1 0 0 0 0 0z" fill="#EA4242"/><path d="M11.303 5.4c.5.1.5.8.2 1.8-.1.2-.2.5-.3.7-.4.9-1 1.9-1.7 2.9-.6.8-1.3 1.6-2.1 2.2-.4.4-.9.7-1.3 1-1 .7-1.9 1-2 .9 0-.3.4-.5 1-1.1.7-.6 1.6-1.5 2.7-2.9.2-.2.3-.4.4-.6.8-1.1 1.2-2.2 1.6-3.1 0-.1.1-.2.1-.3.4-1 .7-1.6 1.4-1.5-.1 0 0 0 0 0z" fill="#EA4242"/><path d="M11.303 5.4c.5.1.5.8.2 1.8-.1.2-.2.5-.3.7-.4.9-.9 1.9-1.7 2.9-.6.8-1.3 1.6-2.1 2.2-.4.4-.9.7-1.3 1-1 .7-1.9 1-2 .9 0-.3.4-.5 1-1.1.7-.6 1.6-1.5 2.6-2.9.2-.2.3-.4.4-.6.9-1.1 1.3-2.2 1.7-3.1 0-.1.1-.2.1-.3.4-1 .7-1.6 1.4-1.5-.1 0 0 0 0 0z" fill="#EA4343"/><path d="M11.303 5.4c.5.1.5.8.2 1.8-.1.2-.2.5-.3.7-.4.8-.9 1.8-1.7 2.9-.6.8-1.3 1.6-2 2.2-.4.4-.9.7-1.3 1-1 .7-1.9 1-2 .9 0-.3.4-.5 1-1 .7-.6 1.6-1.5 2.6-2.9.2-.2.3-.4.4-.6.8-1.2 1.2-2.3 1.6-3.1 0-.1.1-.2.1-.3.4-1.1.7-1.7 1.4-1.6-.1 0-.1 0 0 0z" fill="#EA4444"/><path d="M11.303 5.4c.5.1.5.8.2 1.8-.1.2-.2.5-.3.7-.4.8-.9 1.8-1.7 2.9-.6.8-1.3 1.6-2 2.2-.4.4-.9.7-1.3 1-1 .7-1.9 1-2 .9 0-.3.4-.5 1-1 .7-.6 1.6-1.5 2.6-2.9.2-.2.3-.4.4-.6.8-1.2 1.2-2.3 1.6-3.2 0-.1.1-.2.1-.3.4-1 .7-1.6 1.4-1.5-.1 0-.1 0 0 0z" fill="#EA4444"/><path d="M11.303 5.4c.5.1.5.8.2 1.8-.1.2-.2.5-.3.7-.4.8-.9 1.8-1.7 2.9-.6.8-1.3 1.6-2 2.2-.4.4-.9.7-1.3 1-1 .7-1.9 1-2 .9 0-.3.4-.5 1-1 .7-.6 1.6-1.5 2.6-2.9.2-.2.3-.4.4-.6.8-1.2 1.2-2.3 1.6-3.1 0-.1.1-.2.1-.3.4-1 .7-1.7 1.4-1.6-.1 0-.1 0 0 0z" fill="#EA4545"/><path d="M11.303 5.4c.5.1.5.8.2 1.8-.1.2-.2.5-.3.7-.4.8-.9 1.8-1.7 2.9-.6.8-1.3 1.5-2 2.2-.4.4-.9.7-1.3 1-1 .7-1.9 1-2 .9 0-.3.4-.5 1-1 .7-.6 1.6-1.5 2.6-2.8.2-.2.3-.4.4-.6.8-1.3 1.2-2.4 1.6-3.2 0-.1.1-.2.1-.3.4-1 .7-1.7 1.4-1.6-.1 0-.1 0 0 0z" fill="#EA4646"/><path d="M11.303 5.4c.5.1.5.8.2 1.8-.1.2-.2.5-.3.7-.4.8-.9 1.8-1.7 2.9-.6.8-1.3 1.5-2 2.2-.4.4-.9.7-1.3 1-1 .7-1.9 1-2 .9 0-.3.4-.5 1-1 .7-.6 1.6-1.5 2.6-2.8.2-.2.3-.4.4-.6.8-1.3 1.2-2.4 1.6-3.2 0-.1.1-.2.1-.3.4-1 .7-1.7 1.4-1.6-.1 0-.1 0 0 0z" fill="#EA4747"/><path d="M11.303 5.4c.5.1.5.8.2 1.8-.1.2-.2.5-.3.7-.4.8-.9 1.8-1.7 2.9-.6.8-1.3 1.5-2 2.2-.4.4-.9.7-1.3 1-1 .7-1.9 1-2 .9.1-.3.4-.5 1-1 .7-.6 1.6-1.5 2.6-2.8.2-.2.3-.4.4-.6.8-1.3 1.3-2.4 1.6-3.2 0-.1.1-.2.1-.3.4-1 .7-1.7 1.4-1.6-.1 0-.1 0 0 0z" fill="#EA4747"/><path d="M11.303 5.4c.5.1.5.8.2 1.8-.1.2-.2.5-.3.7-.4.8-.9 1.8-1.7 2.9-.6.8-1.3 1.5-2 2.2-.4.4-.9.7-1.3 1-1 .7-1.8 1-2 .9.1-.3.4-.5 1-1 .7-.6 1.6-1.5 2.6-2.8.2-.2.3-.4.4-.6.8-1.3 1.3-2.4 1.6-3.2 0-.1.1-.2.1-.3.5-1 .7-1.7 1.4-1.6-.1 0-.1 0 0 0z" fill="#EA4848"/><path d="M11.303 5.4c.5.1.5.8.2 1.8-.1.2-.2.5-.3.7-.4.8-.9 1.8-1.7 2.9-.6.8-1.3 1.5-2 2.2-.4.4-.9.7-1.3 1-1 .7-1.8 1-2 .9.1-.3.4-.5 1-1 .7-.6 1.6-1.5 2.6-2.8.2-.2.3-.4.4-.6.8-1.3 1.3-2.4 1.6-3.2 0-.1.1-.2.1-.3.5-1 .7-1.7 1.4-1.6-.1 0-.1 0 0 0z" fill="#EA4949"/><path d="M11.303 5.4c.5.1.5.8.2 1.7-.1.2-.2.5-.3.7-.4.8-.9 1.8-1.6 2.8-.6.8-1.3 1.5-2 2.2-.4.4-.9.7-1.3 1-1 .7-1.8 1-2 .9.1-.3.4-.5 1-1 .7-.6 1.6-1.5 2.6-2.8.2-.2.3-.4.4-.6.7-1.2 1.2-2.2 1.5-3 0-.1.1-.2.1-.3.5-1 .8-1.6 1.4-1.6-.1 0-.1 0 0 0z" fill="#EA4949"/><path d="M11.303 5.4c.5.1.5.8.2 1.7-.1.2-.2.5-.3.7-.4.8-.9 1.8-1.6 2.8-.6.8-1.3 1.5-2 2.2-.4.4-.9.7-1.3 1-1 .7-1.8 1-2 .9.1-.3.4-.5 1-1 .7-.6 1.6-1.5 2.6-2.8.2-.2.3-.4.4-.6.7-1.2 1.2-2.2 1.5-3 .1-.1.1-.3.2-.4.4-.9.7-1.5 1.3-1.5-.1 0-.1 0 0 0z" fill="#EB4A4A"/><path d="M11.302 5.4c.5.1.5.8.2 1.7-.1.2-.2.5-.3.7-.4.8-.9 1.8-1.6 2.8-.6.8-1.2 1.5-2 2.2-.4.4-.9.7-1.3 1-1 .7-1.8 1-1.9.9.1-.3.4-.5 1-1 .7-.6 1.6-1.5 2.5-2.8.2-.2.3-.4.4-.6.8-1.2 1.2-2.2 1.6-3 0-.1 0-.3.1-.3.4-1 .7-1.6 1.3-1.6-.1 0-.1 0 0 0z" fill="#EB4B4B"/><path d="M11.302 5.4c.5.1.5.8.2 1.7-.1.2-.2.5-.3.7-.4.8-.9 1.8-1.6 2.8-.5.8-1.2 1.5-2 2.2-.4.4-.9.7-1.3 1-1 .7-1.8 1-1.9.9.1-.3.4-.5 1-1 .7-.6 1.6-1.5 2.5-2.8.2-.2.3-.4.4-.6.8-1.2 1.2-2.2 1.6-3 0-.1 0-.2.1-.3.4-1 .7-1.6 1.3-1.6-.1 0-.1 0 0 0z" fill="#EB4C4C"/><path d="M11.302 5.4c.4.1.5.8.2 1.7-.1.2-.2.5-.3.7-.4.8-.9 1.8-1.6 2.8-.5.8-1.2 1.5-2 2.2-.4.4-.9.7-1.3 1-1 .6-1.8 1-1.9.9.1-.3.4-.5 1-1 .6-.7 1.5-1.5 2.5-2.8.2-.2.3-.4.4-.6.8-1.2 1.2-2.2 1.6-3 0-.1 0-.2.1-.3.4-1 .7-1.6 1.3-1.6-.1 0-.1 0 0 0z" fill="#EB4C4C"/><path d="M11.302 5.4c.4.1.5.8.2 1.7-.1.2-.2.5-.3.7-.4.8-.9 1.8-1.6 2.8-.5.8-1.2 1.5-2 2.1-.4.4-.9.7-1.3 1-1 .6-1.8 1-1.9.9.1-.3.4-.5.9-1 .7-.6 1.6-1.5 2.5-2.8.2-.2.3-.4.4-.6.8-1.2 1.2-2.2 1.6-3 .1 0 .1-.1.2-.2.4-1 .7-1.6 1.3-1.6-.1 0-.1 0 0 0z" fill="#EB4D4D"/><path d="M11.303 5.4c.4.1.5.8.2 1.7-.1.2-.2.5-.3.7-.4.8-.9 1.8-1.6 2.8-.5.8-1.2 1.5-1.9 2.1-.4.4-.8.7-1.3 1-1 .6-1.8 1-1.9.9.1-.3.4-.5.9-1 .7-.6 1.6-1.5 2.5-2.8.2-.2.3-.4.4-.6.8-1.1 1.2-2.2 1.6-3 0 0 0-.1.1-.2.4-1 .7-1.6 1.3-1.6-.1 0-.1 0 0 0z" fill="#EB4E4E"/><path d="M11.303 5.4c.4.1.5.8.2 1.7-.1.2-.2.5-.3.7-.4.8-.9 1.8-1.6 2.8-.5.8-1.2 1.5-1.9 2.1-.4.4-.8.7-1.3 1-1 .6-1.8 1-1.9.9.1-.3.4-.5.9-1 .7-.6 1.6-1.5 2.5-2.8.1-.2.3-.4.4-.6.8-1.1 1.2-2.2 1.5-3 .1 0 .1-.1.2-.2.4-1 .7-1.6 1.3-1.6-.1 0-.1 0 0 0z" fill="#EB4E4E"/><path d="M11.303 5.4c.4.1.5.8.2 1.7-.1.2-.2.5-.3.7-.4.8-.9 1.8-1.6 2.8-.5.8-1.2 1.5-1.9 2.1-.4.4-.8.7-1.3 1-.9.6-1.8 1-1.9.9.1-.3.4-.5.9-1 .7-.6 1.6-1.5 2.5-2.7.1-.2.3-.4.4-.6.8-1.1 1.2-2.2 1.5-3 .1-.1.1-.2.2-.3.4-1 .7-1.6 1.3-1.6-.1 0-.1 0 0 0z" fill="#EB4F4F"/><path d="M11.303 5.5c.4.1.5.8.2 1.7-.1.2-.2.5-.3.7-.4.8-.9 1.8-1.6 2.8-.5.8-1.2 1.5-1.9 2.1-.4.4-.8.7-1.2 1-.9.6-1.7 1-1.9.9.1-.3.4-.5.9-1 .6-.7 1.5-1.6 2.4-2.9.1-.2.3-.4.4-.6.8-1.1 1.2-2.2 1.5-3 .1 0 .1-.1.2-.2.4-1 .7-1.6 1.3-1.5-.1-.1-.1 0 0 0z" fill="#EB5050"/><path d="M11.303 5.5c.4.1.5.8.2 1.7-.1.2-.2.5-.3.7-.4.8-.9 1.8-1.6 2.8-.5.8-1.2 1.5-1.9 2.1-.4.4-.8.7-1.2 1-.9.6-1.7.9-1.9.9.1-.3.4-.5.9-1 .6-.7 1.5-1.6 2.4-2.9.1-.2.3-.4.4-.6.8-1.1 1.2-2.2 1.5-3 .1 0 .1-.1.2-.2.4-1 .7-1.6 1.3-1.5-.1 0-.1 0 0 0z" fill="#EB5151"/><path d="M11.303 5.5c.4.1.5.8.2 1.7-.1.2-.2.5-.3.7-.4.8-.9 1.7-1.6 2.8-.5.8-1.2 1.5-1.9 2.1-.4.4-.8.7-1.2 1-.9.6-1.7.9-1.9.9.1-.3.4-.5.9-1 .7-.6 1.5-1.5 2.5-2.8.1-.2.3-.4.4-.6.7-1.1 1.2-2.2 1.5-3 0-.1 0-.2.1-.3.4-1 .7-1.6 1.3-1.5-.1 0-.1 0 0 0z" fill="#EB5151"/><path d="M11.303 5.5c.4.1.5.8.1 1.7-.1.2-.2.5-.3.7-.3.8-.9 1.7-1.6 2.8-.5.8-1.2 1.5-1.9 2.1-.4.4-.8.7-1.2 1-.9.6-1.7.9-1.9.9.1-.3.4-.5.9-1 .7-.6 1.5-1.5 2.5-2.8.1-.2.3-.4.4-.6.7-1.1 1.2-2.2 1.5-3 .1-.1.2-.2.2-.3.4-1 .7-1.6 1.3-1.5-.1 0-.1 0 0 0z" fill="#EB5252"/><path d="M11.303 5.5c.4.1.4.8.1 1.7-.1.2-.2.5-.3.7-.3.8-.9 1.7-1.6 2.7-.5.8-1.2 1.5-1.9 2.1-.4.4-.8.7-1.2 1-.9.6-1.7.9-1.9.9.1-.3.4-.5.9-1 .7-.7 1.5-1.5 2.5-2.8.1-.2.3-.4.4-.6.7-1.1 1.2-2.1 1.5-3 .1 0 .2-.1.2-.2.4-1 .7-1.6 1.3-1.5-.1 0-.1 0 0 0z" fill="#EC5353"/><path d="M11.202 5.5c.4.1.4.8.1 1.7-.1.2-.2.5-.3.7-.3.8-.9 1.7-1.6 2.7-.5.8-1.2 1.5-1.9 2.1-.4.4-.8.7-1.2 1-.9.6-1.7.9-1.9.9.1-.3.4-.5.9-1 .9-.7 1.7-1.6 2.7-2.8.1-.2.3-.4.4-.6.7-1.1 1.2-2.1 1.5-3 0 0 .1-.1.1-.2.4-1 .7-1.6 1.2-1.5z" fill="#EC5353"/><path d="M11.204 5.5c.4.1.4.8.1 1.7-.1.2-.2.4-.3.7-.3.8-.9 1.7-1.6 2.7-.4.7-1 1.4-1.7 2.1-.4.4-.8.7-1.2 1-.9.6-1.7.9-1.9.9.1-.3.4-.5.9-1 .7-.7 1.6-1.6 2.5-2.8.1-.2.3-.4.4-.6.7-1.1 1.2-2.1 1.5-2.9 0-.1.1-.2.1-.3.4-1 .7-1.6 1.2-1.5z" fill="#EC5454"/><path d="M11.203 5.5c.4.1.4.8.1 1.7-.1.2-.2.4-.3.7-.3.8-.9 1.7-1.6 2.7-.4.7-1 1.4-1.7 2.1-.4.4-.8.7-1.2 1-.9.6-1.7.9-1.8.9.1-.3.4-.5.9-1 .6-.7 1.5-1.6 2.4-2.8.1-.2.3-.4.4-.6.7-1.1 1.2-2.1 1.5-2.9 0-.1.1-.2.1-.3.4-1 .7-1.6 1.2-1.5z" fill="#EC5555"/><path d="M11.203 5.5c.4.1.4.8.1 1.7-.1.2-.2.4-.3.7-.3.8-.9 1.7-1.6 2.7-.4.7-1 1.4-1.7 2.1-.4.4-.8.7-1.2 1-.9.6-1.7.9-1.8.9.1-.3.4-.5.9-1 .7-.7 1.5-1.6 2.4-2.8.1-.2.3-.4.4-.6.7-1.1 1.2-2.1 1.5-2.9 0-.1.1-.2.1-.3.4-1 .7-1.6 1.2-1.5z" fill="#EC5656"/><path d="M11.203 5.5c.4.1.4.8.1 1.7-.1.2-.2.4-.3.7-.3.8-.9 1.7-1.6 2.7-.4.7-1 1.4-1.7 2-.4.4-.8.7-1.2 1-.9.6-1.7.9-1.8.9.1-.3.4-.5.9-1 .7-.7 1.5-1.5 2.4-2.7.1-.2.3-.4.4-.6.7-1.1 1.2-2.1 1.5-2.9 0-.1.1-.2.1-.3.4-1 .7-1.6 1.2-1.5z" fill="#EC5656"/><path d="M11.203 5.5c.4.1.4.8.1 1.7-.1.2-.2.4-.3.7-.3.8-.9 1.7-1.5 2.7-.5.7-1.1 1.4-1.8 2-.4.4-.8.7-1.2 1-.9.6-1.7.9-1.8.9.1-.3.4-.5.9-1 .7-.7 1.5-1.5 2.4-2.7.1-.2.3-.4.4-.6.7-1.1 1.2-2.1 1.5-2.9 0-.1.1-.2.1-.3.4-1 .7-1.6 1.2-1.5z" fill="#EC5757"/><path d="M11.203 5.5c.4.1.4.8.1 1.7-.1.2-.2.4-.3.7-.3.8-.9 1.7-1.5 2.7-.5.7-1.1 1.4-1.8 2-.4.4-.8.7-1.2 1-.9.6-1.7.9-1.8.9.1-.3.4-.5.9-1 .7-.7 1.5-1.5 2.4-2.7.1-.2.3-.4.4-.6.7-1.1 1.2-2.1 1.5-2.9 0-.1.1-.2.1-.3.4-1 .7-1.6 1.2-1.5z" fill="#EC5858"/><path d="M11.203 5.5c.4.1.4.8.1 1.7-.1.2-.2.4-.3.7-.3.8-.9 1.7-1.5 2.7-.5.7-1.2 1.4-1.8 2.1-.4.4-.8.7-1.2 1-.9.6-1.6.9-1.8.9.1-.3.4-.5.9-1 .7-.8 1.5-1.6 2.4-2.8.1-.2.3-.4.4-.6.7-1.1 1.1-2.1 1.5-2.9 0-.1.1-.2.1-.3.4-.9.7-1.6 1.2-1.5z" fill="#EC5858"/><path d="M11.203 5.5c.4.2.4.8.1 1.7-.1.2-.2.4-.3.7-.3.8-.9 1.7-1.5 2.7-.5.7-1.1 1.4-1.8 2.1-.4.4-.8.7-1.2 1-.9.6-1.6.9-1.8.9.1-.3.4-.5.9-1 .7-.7 1.5-1.5 2.4-2.7.1-.2.3-.4.4-.6.7-1.1 1.1-2.1 1.5-2.9 0-.2.1-.3.1-.4.4-.9.7-1.6 1.2-1.5z" fill="#EC5959"/><path d="M11.203 5.5c.4.2.4.8.1 1.6-.1.2-.2.4-.3.7-.3.8-.9 1.7-1.5 2.7-.5.7-1.1 1.4-1.8 2.1-.4.4-.8.7-1.2 1-.9.6-1.6.9-1.8.9.1-.3.4-.5.9-1 .7-.7 1.5-1.5 2.4-2.7.1-.2.3-.4.4-.6.7-1.1 1.1-2.1 1.5-2.9.1-.1.1-.2.1-.3.4-.9.7-1.5 1.2-1.5z" fill="#EC5A5A"/><path d="M11.203 5.5c.4.2.4.8.1 1.6-.1.2-.2.4-.3.7-.3.8-.8 1.7-1.5 2.7-.5.7-1.1 1.4-1.8 2.1-.4.4-.8.7-1.2 1-.9.6-1.6.9-1.8.9.1-.3.4-.5.9-1 .7-.7 1.5-1.5 2.4-2.7.1-.2.3-.4.4-.6.7-1.1 1.1-2.1 1.5-2.9.1-.1.1-.2.1-.3.4-.9.7-1.5 1.2-1.5z" fill="#EC5B5B"/><path d="M11.203 5.5c.4.2.4.8.1 1.6-.1.2-.2.4-.3.7-.3.8-.8 1.7-1.5 2.7-.5.7-1.1 1.4-1.8 2.1-.4.4-.8.7-1.2 1-.9.6-1.6.9-1.8.9.1-.3.4-.5.9-1 .7-.7 1.5-1.5 2.4-2.7.1-.2.3-.4.4-.6.7-1.1 1.1-2.1 1.5-2.9.1-.1.1-.2.1-.3.4-.9.7-1.5 1.2-1.5z" fill="#EC5B5B"/><path d="M11.203 5.5c.4.2.4.8.1 1.6-.1.2-.2.4-.3.7-.3.8-.8 1.7-1.5 2.6-.5.7-1.1 1.4-1.8 2-.4.4-.8.7-1.2 1-.9.6-1.6.9-1.8.9.1-.3.4-.5.9-1 .7-.7 1.5-1.5 2.3-2.7.1-.2.3-.4.4-.6.7-1.1 1.1-2.1 1.5-2.9.2.1.2 0 .2-.1.4-.9.7-1.5 1.2-1.5z" fill="#ED5C5C"/><path d="M11.203 5.5c.4.2.4.8.1 1.6-.1.2-.2.4-.3.7-.3.8-.8 1.7-1.5 2.6-.5.7-1.1 1.4-1.8 2-.4.4-.8.7-1.2 1-.9.6-1.6.9-1.8.9.1-.3.4-.5.9-1 .7-.7 1.5-1.5 2.3-2.7.1-.2.3-.4.4-.6.9-1 1.3-1.9 1.6-2.7.1-.1.1-.2.1-.3.4-.9.7-1.5 1.2-1.5z" fill="#ED5D5D"/><path d="M11.203 5.5c.4.2.4.7.1 1.6-.1.2-.2.4-.3.7-.3.8-.8 1.7-1.5 2.6-.5.7-1.1 1.4-1.8 2-.4.4-.8.7-1.2 1-.8.6-1.6.9-1.8.9.1-.3.4-.5.9-1 .7-.7 1.5-1.5 2.3-2.7.1-.2.3-.4.4-.6.9-1 1.3-1.9 1.6-2.7.1-.1.1-.2.1-.3.4-.9.7-1.5 1.2-1.5z" fill="#ED5D5D"/><path d="M11.203 5.5c.4.2.4.7.1 1.6-.1.2-.2.4-.3.7-.3.8-.8 1.7-1.5 2.6-.5.7-1.1 1.4-1.8 2-.4.4-.8.7-1.2 1-.8.6-1.6.9-1.8.9.1-.3.4-.5.9-1 .7-.7 1.5-1.5 2.3-2.7.1-.2.3-.4.4-.6.9-1 1.3-1.9 1.6-2.7.1-.1.1-.2.2-.3.3-.9.6-1.5 1.1-1.5z" fill="#ED5E5E"/><path d="M11.202 5.5c.4.2.4.7.1 1.6-.1.2-.2.4-.3.7-.3.8-.8 1.6-1.5 2.6-.5.7-1.1 1.4-1.8 2-.4.4-.8.7-1.1 1-.8.6-1.6.9-1.7.9.1-.3.4-.5.9-1 .7-.7 1.5-1.5 2.3-2.7.1-.2.3-.4.4-.6.7-1 1.1-1.9 1.4-2.7.1-.1.1-.2.2-.3.3-.9.6-1.5 1.1-1.5z" fill="#ED5F5F"/><path d="M11.202 5.5c.4.2.4.7.1 1.6-.1.2-.2.4-.3.7-.3.8-.8 1.6-1.5 2.6-.5.7-1.1 1.4-1.8 2-.4.4-.8.7-1.1 1-.8.6-1.6.9-1.7.9.1-.3.4-.5.9-1 .7-.7 1.5-1.5 2.3-2.7.1-.2.3-.4.4-.6.7-1.1 1.1-2 1.4-2.8.1 0 .1-.1.2-.2.3-.9.6-1.5 1.1-1.5z" fill="#ED6060"/><path d="M11.203 5.5c.4.2.4.7.1 1.6-.1.2-.2.4-.3.7-.3.8-.8 1.6-1.5 2.6-.5.7-1.1 1.4-1.8 2-.4.4-.8.7-1.1 1-.7.6-1.5.9-1.6.9.1-.3.4-.5.9-1 .7-.7 1.5-1.5 2.3-2.7.1-.2.3-.4.4-.6.7-1.1 1.1-2 1.4-2.8 0 0 0-.1.1-.2.3-.9.6-1.5 1.1-1.5z" fill="#ED6060"/><path d="M11.203 5.5c.4.2.4.7.1 1.6-.1.2-.2.4-.3.7-.3.7-.8 1.6-1.5 2.6-.5.7-1.1 1.4-1.7 2-.4.4-.8.7-1.1.9-.8.6-1.5.9-1.7.9.1-.3.4-.5.9-1 .7-.7 1.5-1.5 2.3-2.6.1-.2.3-.4.4-.6.7-1.1 1.1-2 1.4-2.8 0 0 0-.1.1-.2.3-.9.6-1.5 1.1-1.5z" fill="#ED6161"/><path d="M11.203 5.6c.4.2.4.7.1 1.6-.1.2-.2.4-.3.7-.3.7-.8 1.6-1.5 2.6-.5.7-1.1 1.4-1.7 2-.4.4-.8.7-1.1.9-.8.6-1.5.9-1.7.9.1-.3.4-.5.9-1 .7-.7 1.5-1.5 2.3-2.6.1-.2.3-.4.4-.6.6-1.1 1-2 1.4-2.8 0-.1 0-.2.1-.3.3-.9.6-1.5 1.1-1.4 0-.1 0-.1 0 0z" fill="#ED6262"/><path d="M11.203 5.6c.3.2.4.7.1 1.6-.1.2-.2.4-.3.7-.3.7-.8 1.6-1.5 2.6-.5.7-1.1 1.4-1.7 2-.4.4-.7.7-1.1.9-.8.6-1.5.9-1.7.9.1-.3.4-.5.9-1 .7-.7 1.5-1.5 2.3-2.6.1-.2.3-.4.4-.6.6-1.1 1-2 1.4-2.8 0-.1 0-.2.1-.3.3-.9.6-1.5 1.1-1.4z" fill="#ED6363"/><path d="M11.203 5.6c.3.2.4.7.1 1.6-.1.2-.2.4-.3.7-.3.7-.8 1.6-1.5 2.6-.5.7-1.1 1.4-1.7 2-.4.4-.7.7-1.1.9-.8.6-1.5.9-1.7.9.1-.3.4-.5.9-1 .7-.7 1.4-1.5 2.3-2.6.1-.2.3-.4.4-.6.6-1.1 1-2 1.4-2.8 0-.1 0-.2.1-.3.4-.9.6-1.5 1.1-1.4z" fill="#ED6363"/><path d="M11.203 5.6c.3.2.4.7.1 1.6-.1.2-.2.4-.3.7-.3.7-.8 1.6-1.5 2.6-.5.7-1.1 1.4-1.7 2-.4.4-.7.7-1.1.9-.8.6-1.5.9-1.7.9.1-.3.4-.5.9-1 .7-.7 1.4-1.5 2.2-2.6.1-.2.3-.4.4-.6.7-1.1 1.1-2 1.5-2.8 0-.1 0-.2.1-.3.4-.9.6-1.5 1.1-1.4z" fill="#ED6464"/><path d="M11.204 5.6c.3.2.4.7.1 1.6l-.3.6c-.3.7-.8 1.6-1.4 2.6-.5.7-1.1 1.4-1.7 2-.4.4-.7.7-1.1.9-.8.6-1.5.9-1.7.9.1-.3.4-.5.9-.9.7-.7 1.4-1.5 2.2-2.6.1-.2.3-.4.4-.6.6-1.1 1-2 1.4-2.8 0-.1 0-.2.1-.3.4-.9.6-1.5 1.1-1.4z" fill="#EE6565"/><path d="M11.204 5.6c.3.2.3.7.1 1.6l-.3.6c-.3.7-.8 1.6-1.4 2.5-.5.7-1.1 1.4-1.7 2-.4.4-.7.7-1.1.9-.8.6-1.5.9-1.7.9.1-.3.4-.5.9-.9.7-.7 1.4-1.5 2.2-2.6.1-.2.3-.4.4-.6.6-1 1.1-1.9 1.4-2.7 0-.1.1-.2.1-.3.4-.9.6-1.5 1.1-1.4z" fill="#EE6565"/><path d="M11.204 5.6c.3.2.3.7.1 1.6l-.3.6c-.3.7-.8 1.6-1.4 2.5-.5.7-1.1 1.4-1.7 2-.4.4-.7.7-1.1.9-.8.6-1.5.9-1.7.9.1-.3.4-.5.9-.9.7-.7 1.4-1.5 2.2-2.6.1-.2.3-.4.4-.6.7-1 1.1-2 1.4-2.8 0-.1.1-.2.1-.3.4-.8.6-1.4 1.1-1.3z" fill="#E66"/><path d="M11.203 5.6c.3.2.3.7.1 1.6-.1.2-.2.4-.2.6-.3.7-.8 1.6-1.4 2.5-.5.7-1.1 1.4-1.7 2-.4.4-.7.7-1.1.9-.8.6-1.5.9-1.7.9.1-.3.4-.5.9-.9.7-.7 1.4-1.5 2.2-2.6.1-.2.3-.4.4-.6.6-1 1-2 1.3-2.7 0-.1.1-.2.1-.3.4-.9.6-1.5 1.1-1.4z" fill="#EE6767"/><path d="M11.203 5.6c.3.2.3.7.1 1.6-.1.2-.1.4-.2.6-.3.7-.8 1.6-1.4 2.5-.5.7-1.1 1.4-1.7 2-.4.3-.7.7-1.1.9-.8.6-1.5.9-1.7.9.1-.3.4-.5.9-.9.7-.7 1.4-1.5 2.2-2.6.1-.2.3-.4.4-.5.6-1.1 1-2.1 1.3-2.8 0-.1.1-.2.1-.3.4-.9.6-1.5 1.1-1.4z" fill="#EE6868"/><path d="M11.203 5.6c.3.2.3.7.1 1.6-.1.2-.1.4-.2.6-.3.7-.8 1.6-1.4 2.5-.5.7-1 1.4-1.7 2-.4.3-.7.7-1.1.9-.8.6-1.4.9-1.7.9.1-.3.4-.5.9-.9.7-.7 1.4-1.5 2.2-2.6.1-.2.3-.4.4-.5.6-1.1 1-2.1 1.3-2.8 0-.1.1-.2.1-.3.4-.9.7-1.5 1.1-1.4z" fill="#EE6868"/><path d="M11.203 5.6c.3.2.3.7 0 1.6-.1.2-.1.4-.2.6-.3.7-.8 1.6-1.4 2.5-.5.7-1 1.3-1.7 2-.4.3-.7.7-1.1.9-.8.6-1.4.9-1.6.9.1-.3.4-.5.8-.9.7-.7 1.4-1.5 2.2-2.6.1-.2.2-.4.4-.5.7-1.1 1.1-2.1 1.4-2.8 0-.1.1-.2.1-.3.4-.9.7-1.5 1.1-1.4z" fill="#EE6969"/><path d="M11.203 5.6c.3.2.3.7 0 1.6-.1.2-.1.4-.2.6-.3.7-.8 1.6-1.4 2.5-.5.7-1 1.3-1.7 2-.4.3-.7.7-1.1.9-.8.6-1.4.9-1.6.9.1-.3.4-.5.8-.9.7-.7 1.4-1.5 2.2-2.6.1-.2.2-.4.4-.5.7-1.1 1.1-2.1 1.4-2.8 0-.1.1-.2.1-.3.4-.9.7-1.5 1.1-1.4z" fill="#EE6A6A"/><path d="M11.203 5.6c.3.2.3.7 0 1.6-.1.2-.1.4-.2.6-.3.7-.8 1.6-1.4 2.5-.5.7-1 1.3-1.7 2-.4.3-.7.7-1.1.9-.8.6-1.4.9-1.6.9.1-.3.4-.5.8-.9.7-.7 1.4-1.5 2.2-2.6.1-.2.2-.4.4-.5.7-1 1-2 1.4-2.7 0-.1.1-.2.1-.3.4-1 .7-1.5 1.1-1.5z" fill="#EE6A6A"/><path d="M11.203 5.6c.3.2.3.7 0 1.5-.1.2-.1.4-.2.6-.3.7-.8 1.6-1.4 2.5-.5.7-1 1.3-1.6 1.9-.3.3-.7.7-1.1.9-.7.7-1.4 1-1.6 1 .1-.3.4-.5.8-.9.7-.7 1.4-1.5 2.2-2.6.1-.2.2-.4.4-.5.6-1 1-2 1.4-2.7 0-.1.1-.2.1-.3.3-.8.6-1.4 1-1.4z" fill="#EE6B6B"/><path d="M11.203 5.6c.3.2.3.7 0 1.5-.1.2-.1.4-.2.6-.3.7-.8 1.6-1.4 2.5-.5.7-1 1.3-1.6 1.9-.3.3-.7.7-1.1.9-.7.7-1.4 1-1.6 1 .1-.3.4-.5.8-.9.7-.7 1.4-1.5 2.2-2.6.1-.2.2-.4.4-.5.6-1 1-2 1.4-2.7 0-.1.1-.2.1-.3.3-.8.6-1.4 1-1.4z" fill="#EE6C6C"/><path d="M11.203 5.6c.3.2.3.7 0 1.5-.1.2-.1.4-.2.6-.3.7-.8 1.6-1.4 2.5-.5.7-1 1.3-1.6 1.9-.3.3-.7.7-1.1.9-.7.7-1.4 1-1.6 1 .1-.3.4-.5.8-.9.7-.7 1.4-1.5 2.1-2.6.1-.2.2-.4.4-.5.7-1 1.1-2 1.4-2.7 0-.1.1-.2.1-.3.4-.8.7-1.4 1.1-1.4z" fill="#EE6D6D"/><path d="M11.203 5.6c.3.2.3.7 0 1.5-.1.2-.1.4-.2.6-.3.7-.8 1.5-1.4 2.5-.5.7-1 1.3-1.6 1.9-.3.3-.7.7-1.1.9-.7.6-1.4.9-1.6.9.1-.3.4-.5.8-.9.7-.7 1.4-1.5 2.1-2.6.1-.2.2-.4.4-.5.7-.9 1.1-1.9 1.4-2.6 0-.1.1-.2.1-.3.4-.8.7-1.4 1.1-1.4z" fill="#EE6D6D"/><path d="M11.202 5.6c.3.2.3.7 0 1.5-.1.2-.1.4-.2.6-.3.7-.8 1.5-1.4 2.4-.5.7-1 1.3-1.6 1.9-.3.3-.7.7-1 .9-.7.5-1.4.9-1.6.9.1-.3.4-.5.8-.9.7-.7 1.4-1.5 2.1-2.6.1-.2.2-.4.4-.5.6-.8 1-1.8 1.3-2.5 0-.1.1-.2.1-.3.4-.8.7-1.4 1.1-1.4z" fill="#EF6E6E"/><path d="M11.202 5.6c.3.2.3.7 0 1.5-.1.2-.1.4-.2.6-.3.7-.8 1.5-1.4 2.4-.4.7-1 1.3-1.6 1.9-.3.3-.7.7-1 .9-.7.5-1.4.9-1.6.9.1-.3.4-.5.8-.9.7-.7 1.4-1.5 2.1-2.5.1-.2.2-.4.4-.5.6-.9 1-1.9 1.3-2.6 0-.1.1-.2.1-.3.4-.8.7-1.4 1.1-1.4z" fill="#EF6F6F"/><path d="M11.202 5.6c.3.2.3.7 0 1.5-.1.2-.1.4-.2.6-.3.7-.8 1.5-1.4 2.4-.4.7-1 1.3-1.6 1.9-.3.3-.7.7-1 .9-.7.5-1.4.9-1.6.9.1-.3.4-.5.8-.9.7-.7 1.4-1.5 2.1-2.5.1-.2.2-.4.3-.5.7-.9 1.1-1.9 1.4-2.6 0-.1.1-.2.1-.3.4-.8.7-1.4 1.1-1.4z" fill="#EF6F6F"/><path d="M11.202 5.6c.3.2.3.7 0 1.5-.1.2-.1.4-.2.6-.3.7-.8 1.5-1.4 2.4-.4.7-1 1.3-1.6 1.9-.3.3-.7.7-1 .9-.7.5-1.4.9-1.6.9.1-.3.4-.5.8-.9.7-.7 1.4-1.5 2.1-2.5.1-.2.2-.4.3-.5.6-1 1-1.9 1.3-2.7 0-.1.1-.2.1-.3.5-.7.8-1.3 1.2-1.3z" fill="#EF7070"/><path d="M11.202 5.6c.3.2.3.7 0 1.5-.1.2-.1.4-.2.6-.3.7-.8 1.5-1.4 2.4-.4.7-1 1.3-1.6 1.9-.3.3-.7.7-1 .9-.7.5-1.3.9-1.6.9.1-.3.4-.5.8-.9.7-.7 1.4-1.5 2.1-2.5.1-.2.2-.4.3-.5.6-1 1-1.9 1.3-2.7 0-.1.1-.2.1-.3.5-.7.8-1.3 1.2-1.3z" fill="#EF7171"/><path d="M11.202 5.6c.3.2.3.7 0 1.5-.1.2-.1.4-.2.6-.3.7-.8 1.5-1.4 2.4-.4.7-1 1.3-1.6 1.9-.3.3-.7.7-1 .9-.7.5-1.3.8-1.6.9.1-.3.4-.5.8-.9.7-.7 1.4-1.5 2.1-2.5.1-.2.2-.4.3-.5.6-1 1-1.9 1.3-2.6 0-.1.1-.2.1-.3.5-.8.8-1.4 1.2-1.4z" fill="#EF7272"/><path d="M11.204 5.6c.3.2.3.7 0 1.5-.1.2-.1.4-.2.6-.3.7-.8 1.5-1.3 2.4-.4.7-1 1.3-1.6 1.9-.3.3-.7.7-1 .9-.7.5-1.3.8-1.5.9.1-.3.4-.5.8-.9.7-.7 1.4-1.5 2.1-2.5.1-.2.2-.4.3-.5.6-1 1-1.9 1.3-2.6 0-.1.1-.2.1-.3.3-.8.6-1.4 1-1.4z" fill="#EF7272"/><path d="M11.204 5.6c.3.2.3.7 0 1.5-.1.2-.1.4-.2.6-.3.7-.7 1.5-1.3 2.4-.4.7-1 1.3-1.6 1.9-.3.3-.7.7-1 .9-.7.5-1.3.8-1.5.9.1-.3.4-.5.8-.9.7-.7 1.4-1.5 2.1-2.5.1-.2.2-.4.3-.5.6-1 1-1.9 1.3-2.6 0-.1.1-.2.1-.3.3-.8.6-1.4 1-1.4z" fill="#EF7373"/><path d="M11.204 5.6c.3.2.3.7 0 1.5-.1.2-.1.4-.2.6-.3.7-.7 1.5-1.3 2.4-.4.6-1 1.3-1.6 1.9-.3.3-.7.6-1 .9-.7.5-1.3.8-1.5.9.1-.2.4-.5.7-.8.7-.7 1.4-1.5 2.1-2.5.1-.2.2-.4.3-.5.6-1 1-1.9 1.3-2.6 0-.1.1-.2.1-.3.4-.9.7-1.5 1.1-1.5z" fill="#EF7474"/><path d="M11.204 5.7c.3.2.3.7 0 1.5-.1.2-.1.4-.2.6-.3.7-.7 1.5-1.3 2.4-.4.6-1 1.3-1.6 1.9-.3.3-.7.6-1 .9-.7.5-1.3.8-1.5.9.1-.3.4-.5.8-.9.7-.7 1.4-1.5 2.1-2.5.1-.2.2-.4.3-.5.6-1 1-1.9 1.3-2.6 0-.1.1-.2.1-.3.3-.9.6-1.5 1-1.4z" fill="#EF7474"/><path d="M11.203 5.7c.3.2.3.7 0 1.5-.1.2-.1.4-.2.6-.3.7-.7 1.5-1.3 2.4-.4.6-1 1.3-1.5 1.9-.3.3-.7.6-1 .9-.7.5-1.3.8-1.5.9.1-.3.4-.5.8-.9.7-.7 1.3-1.5 2-2.5.1-.2.2-.4.3-.5.6-1 1-1.9 1.3-2.6 0-.1.1-.2.1-.3.3-.9.6-1.5 1-1.4z" fill="#EF7575"/><path d="M11.203 5.7c.3.2.3.7 0 1.5-.1.2-.1.4-.2.6-.3.7-.7 1.5-1.3 2.4-.4.6-1 1.3-1.5 1.9-.3.3-.7.6-1 .9-.7.5-1.3.8-1.5.9.1-.3.4-.5.8-.9.7-.7 1.3-1.5 2-2.5.1-.2.2-.4.3-.5.6-1 1-1.9 1.3-2.6 0-.1.1-.2.1-.3.3-.9.6-1.5 1-1.4z" fill="#EF7676"/><path d="M11.203 5.7c.3.2.3.7 0 1.5-.1.2-.1.4-.2.6-.3.7-.7 1.5-1.3 2.4-.4.6-1 1.3-1.5 1.9-.3.3-.7.6-1 .9-.7.5-1.3.8-1.5.9.1-.3.4-.5.8-.9.7-.7 1.3-1.5 2-2.5.1-.2.2-.4.3-.5.6-1 1-1.9 1.3-2.6 0-.1.1-.2.1-.3.3-.9.6-1.5 1-1.4z" fill="#F07777"/><path d="M11.203 5.7c.3.2.2.7 0 1.5-.1.2-.1.4-.2.6-.3.7-.7 1.5-1.3 2.3-.4.6-.9 1.3-1.5 1.9-.3.3-.7.6-1 .9-.7.5-1.3.8-1.5.9.1-.3.4-.5.8-.9.7-.7 1.3-1.5 2-2.5.1-.2.2-.3.3-.5.6-1 1-1.9 1.3-2.6 0-.1.1-.2.1-.3.3-.8.6-1.4 1-1.3z" fill="#F07777"/><path d="M11.203 5.7c.3.2.2.7 0 1.5-.1.1-.2.3-.2.5-.3.7-.7 1.5-1.3 2.3-.4.6-.9 1.3-1.5 1.9-.3.3-.6.6-1 .9-.7.5-1.3.8-1.5.9.1-.3.4-.5.8-.9.7-.7 1.3-1.5 2-2.5.1-.2.2-.3.3-.5.6-1 1-1.9 1.3-2.6 0-.1.1-.2.1-.3.3-.7.6-1.3 1-1.2z" fill="#F07878"/><path d="M11.203 5.7c.2.2.2.7 0 1.5-.1.1-.2.3-.2.5-.3.7-.7 1.5-1.3 2.3-.4.6-.9 1.3-1.5 1.9-.3.3-.6.6-1 .9-.7.5-1.2.8-1.5.9.1-.3.4-.5.8-.9.7-.7 1.3-1.5 2-2.5.1-.2.2-.3.3-.5.6-1 1-1.9 1.3-2.6 0-.1.1-.2.1-.3.3-.7.6-1.3 1-1.2z" fill="#F07979"/><path d="M11.203 5.7c.2.2.2.7 0 1.5-.1.1-.2.3-.2.5-.3.7-.7 1.5-1.3 2.3-.4.6-.9 1.3-1.5 1.9-.3.3-.6.6-1 .9-.6.5-1.2.8-1.5.9.1-.3.4-.5.8-.9.7-.7 1.3-1.5 2-2.5.1-.2.2-.3.3-.5.6-1 1-1.8 1.3-2.6 0-.1.1-.2.1-.3.3-.7.6-1.3 1-1.2z" fill="#F07979"/><path d="M11.203 5.7c.2.2.2.7 0 1.5-.1.2-.1.4-.2.6-.3.7-.7 1.5-1.3 2.3-.4.6-.9 1.3-1.5 1.8-.3.3-.6.6-1 .9-.6.5-1.2.8-1.5.9.1-.3.4-.5.8-.9.7-.7 1.3-1.5 2-2.5.1-.2.2-.3.3-.5.6-1 1-1.8 1.3-2.6 0-.1.1-.2.1-.3.3-.7.6-1.2 1-1.2z" fill="#F07A7A"/><path d="M11.203 5.7c.2.2.2.7 0 1.5-.1.2-.1.4-.2.6-.3.7-.7 1.4-1.3 2.3-.4.6-.9 1.2-1.5 1.8-.3.3-.6.6-1 .9-.6.5-1.2.8-1.5.9.1-.3.4-.5.8-.9.7-.7 1.3-1.5 2-2.5.1-.2.2-.3.3-.5.6-1 1-1.8 1.3-2.5 0-.1.1-.2.1-.3.3-.8.6-1.3 1-1.3z" fill="#F07B7B"/><path d="M11.203 5.7c.2.2.2.7 0 1.5-.1.2-.1.4-.2.6-.3.7-.7 1.4-1.3 2.3-.4.6-.9 1.2-1.5 1.8-.3.3-.6.6-1 .9-.6.5-1.2.8-1.5.9.1-.3.4-.5.8-.9.7-.7 1.3-1.5 2-2.4.1-.2.2-.3.3-.5.6-1 1-1.8 1.2-2.5 0-.1.1-.2.1-.3.4-.9.7-1.4 1.1-1.4z" fill="#F07C7C"/><path d="M11.203 5.7c.2.2.2.7 0 1.4-.1.2-.1.4-.2.6-.3.7-.7 1.4-1.3 2.3-.4.6-.9 1.2-1.5 1.8-.3.3-.6.6-1 .9-.6.5-1.2.8-1.4.9.1-.3.4-.5.8-.9.7-.7 1.3-1.5 2-2.4.1-.2.2-.3.3-.5.6-1 .9-1.8 1.2-2.5 0-.1.1-.2.1-.3.3-.8.6-1.3 1-1.3z" fill="#F07C7C"/><path d="M11.202 5.7c.2.2.2.7 0 1.4-.1.2-.1.4-.2.6-.3.7-.7 1.4-1.3 2.3-.4.6-.9 1.2-1.5 1.8l-.9.9c-.6.5-1.2.8-1.4.9.1-.3.4-.5.8-.9.7-.7 1.3-1.5 1.9-2.4.1-.2.2-.3.3-.5.6-1 .9-1.8 1.2-2.5 0-.1.1-.2.1-.3.3-.8.6-1.3 1-1.3z" fill="#F07D7D"/><path d="M11.202 5.7c.2.2.2.7 0 1.4-.1.2-.1.4-.2.6-.3.7-.7 1.4-1.3 2.3-.4.6-.9 1.2-1.5 1.8l-.9.9c-.6.5-1.2.8-1.4.9.1-.3.4-.5.8-.9.7-.7 1.3-1.5 1.9-2.4.1-.2.2-.3.3-.5.6-1 .9-1.8 1.2-2.5 0-.1.1-.2.1-.3.4-.8.6-1.3 1-1.3z" fill="#F07E7E"/><path d="M11.202 5.7c.2.2.2.7 0 1.4-.1.2-.1.4-.2.6-.3.6-.7 1.4-1.3 2.3-.4.6-.9 1.2-1.5 1.8l-.9.9c-.6.5-1.2.8-1.4.9.1-.3.4-.5.8-.9.7-.7 1.3-1.5 1.9-2.4.1-.2.2-.3.3-.5.6-1 .9-1.8 1.2-2.5 0-.1.1-.2.1-.3.4-.7.6-1.3 1-1.3z" fill="#F07E7E"/><path d="M11.202 5.7c.2.2.2.7-.1 1.4-.1.2-.1.4-.2.6-.3.6-.7 1.4-1.3 2.3-.4.6-.9 1.2-1.4 1.8l-.9.9c-.6.5-1.2.8-1.4.9.1-.3.4-.5.8-.9.7-.7 1.3-1.5 1.9-2.4.1-.2.2-.3.3-.5.6-.9.9-1.8 1.2-2.5 0-.1.1-.2.1-.3.4-.7.6-1.3 1-1.3z" fill="#F07F7F"/><path d="M11.203 5.7c.2.2.2.7-.1 1.4-.1.2-.1.4-.2.6-.3.6-.7 1.4-1.2 2.3-.4.6-.9 1.2-1.4 1.8l-.9.9c-.6.5-1.2.8-1.4.9.1-.3.4-.5.8-.9.5-.7 1.2-1.4 1.8-2.4.1-.2.2-.3.3-.5.6-.9.9-1.8 1.2-2.5 0-.1.1-.2.1-.3.4-.7.6-1.3 1-1.3z" fill="#F18080"/><path d="M11.203 5.7c.2.2.2.7-.1 1.4-.1.2-.1.4-.2.6-.3.6-.7 1.4-1.2 2.2-.4.6-.9 1.2-1.4 1.8l-.9.9c-.6.5-1.1.8-1.4.9.1-.3.4-.5.8-.9.5-.6 1.2-1.4 1.8-2.3.1-.2.2-.3.3-.5.6-.9.9-1.8 1.2-2.5 0-.1.1-.2.1-.3.4-.7.6-1.3 1-1.3z" fill="#F18181"/><path d="M11.203 5.7c.2.2.2.7-.1 1.4-.1.2-.1.4-.2.6-.3.6-.7 1.4-1.2 2.2-.4.6-.9 1.2-1.4 1.8l-.9.9c-.6.5-1.1.8-1.4.9.1-.3.4-.5.8-.9.6-.6 1.2-1.4 1.8-2.3.1-.2.2-.3.3-.5.6-.9.9-1.8 1.2-2.5 0-.1.1-.2.1-.2.4-.8.6-1.4 1-1.4z" fill="#F18181"/><path d="M11.203 5.7c.2.2.2.7-.1 1.4-.1.2-.1.4-.2.6-.3.6-.7 1.4-1.2 2.2-.4.6-.9 1.2-1.4 1.8l-.9.9c-.6.5-1.1.8-1.4.9.1-.3.4-.5.8-.9.6-.6 1.2-1.4 1.8-2.3.1-.2.2-.3.3-.5.6-.9.9-1.8 1.2-2.5 0-.1.1-.2.1-.2.4-.8.6-1.4 1-1.4z" fill="#F18282"/><path d="M11.203 5.7c.2.2.2.7-.1 1.4-.1.2-.1.4-.2.6-.3.6-.7 1.4-1.2 2.2-.4.6-.9 1.2-1.4 1.8l-.9.9c-.6.5-1.1.8-1.4.9.1-.3.4-.5.8-.9.6-.6 1.2-1.4 1.8-2.3.1-.2.2-.3.3-.5.6-1 .9-1.8 1.2-2.5 0-.1.1-.2.1-.2.4-.8.6-1.4 1-1.4z" fill="#F18383"/><path d="M11.203 5.7c.2.2.2.7-.1 1.4-.1.2-.1.4-.2.6-.3.6-.7 1.4-1.2 2.2-.4.6-.9 1.2-1.4 1.8l-.9.9c-.6.5-1.1.8-1.4.9.1-.3.4-.5.8-.9.6-.6 1.2-1.4 1.8-2.3.1-.2.2-.3.3-.5.6-1 .9-1.8 1.2-2.5 0-.1.1-.2.1-.2.4-.8.6-1.4 1-1.4z" fill="#F18383"/><path d="M11.203 5.7c.2.2.2.7-.1 1.4-.1.2-.1.4-.2.6-.3.6-.7 1.4-1.2 2.2-.4.6-.9 1.2-1.4 1.8l-.9.9c-.6.4-1.1.8-1.4.9.1-.3.4-.5.8-.9.6-.6 1.2-1.4 1.8-2.3.1-.2.2-.3.3-.5.6-1 1-1.8 1.2-2.5 0-.1.1-.2.1-.2.4-.8.6-1.4 1-1.4z" fill="#F18484"/><path d="M11.203 5.7c.2.2.2.7-.1 1.4-.1.2-.1.4-.2.6-.3.6-.7 1.4-1.2 2.2-.4.6-.9 1.2-1.4 1.8-.3.3-.6.6-.9.8-.6.5-1.1.8-1.4 1 .2-.3.4-.5.7-.9.7-.7 1.3-1.5 1.9-2.4.2-.1.3-.3.4-.4.5-1 .9-1.8 1.1-2.5 0-.1.1-.2.1-.2.4-.8.6-1.4 1-1.4z" fill="#F18585"/><path d="M11.203 5.7c.2.2.2.7-.1 1.4-.1.2-.1.4-.2.6-.3.6-.7 1.4-1.2 2.2-.4.6-.9 1.2-1.4 1.8-.3.3-.6.6-.9.8-.6.5-1.1.8-1.4.9.2-.3.4-.5.7-.9.7-.7 1.3-1.5 1.8-2.4.3 0 .4-.2.5-.3.5-1 .9-1.8 1.1-2.5 0-.1.1-.2.1-.2.4-.8.6-1.4 1-1.4z" fill="#F18686"/><path d="M11.204 5.8c.2.2.2.7-.1 1.4-.1.1-.1.3-.2.5-.3.6-.7 1.4-1.2 2.2-.4.6-.8 1.2-1.4 1.8-.3.3-.6.6-.9.8-.6.5-1.1.8-1.3.9.2-.3.4-.5.7-.8.7-.7 1.3-1.5 1.8-2.4.2-.1.3-.3.4-.5.5-.9.9-1.7 1.2-2.4 0-.1.1-.2.1-.2.3-.8.5-1.4.9-1.3 0-.1 0 0 0 0z" fill="#F18686"/><path d="M11.204 5.8c.2.2.2.7-.1 1.4-.1.1-.1.3-.2.5-.3.6-.7 1.3-1.2 2.2-.4.6-.8 1.2-1.4 1.8l-.9.9c-.5.5-1.1.8-1.3.9.2-.3.4-.5.7-.8.6-.7 1.2-1.5 1.8-2.4.2-.2.3-.4.4-.6.5-.9.9-1.7 1.2-2.4 0-.1.1-.2.1-.2.3-.8.5-1.4.9-1.3z" fill="#F18787"/><path d="M11.204 5.8c.2.2.2.7-.1 1.4-.1.1-.1.3-.2.5-.3.6-.7 1.3-1.2 2.2-.4.6-.8 1.2-1.4 1.8l-.9.9c-.5.5-1.1.8-1.3.9.2-.3.4-.5.7-.8.6-.7 1.2-1.5 1.8-2.4.2-.2.3-.4.4-.6.5-.9.9-1.7 1.2-2.4 0-.1.1-.2.1-.2.3-.8.6-1.4.9-1.3z" fill="#F18888"/><path d="M11.203 5.8c.2.2.2.7-.1 1.4-.1.1-.1.3-.2.5-.3.6-.7 1.3-1.2 2.1-.4.6-.8 1.2-1.3 1.8l-.9.9c-.5.5-1.1.8-1.3.9.2-.3.4-.5.7-.8.6-.7 1.2-1.5 1.8-2.4.1-.1.2-.3.3-.5.5-.9.9-1.7 1.2-2.4 0-.1.1-.2.1-.2.3-.8.6-1.4.9-1.3z" fill="#F18888"/><path d="M11.203 5.8c.2.2.1.7-.1 1.4-.1.1-.1.3-.2.5-.3.6-.7 1.3-1.2 2.1-.4.6-.8 1.2-1.3 1.7l-.9.9c-.5.5-1 .8-1.3.9.2-.3.4-.5.7-.8.6-.7 1.2-1.5 1.8-2.3.1-.2.2-.3.3-.5.5-.9.9-1.7 1.2-2.4 0-.1.1-.2.1-.2.3-.8.6-1.4.9-1.3z" fill="#F28989"/><path d="M11.203 5.8c.2.2.1.7-.1 1.4-.1.1-.1.3-.2.5-.3.6-.7 1.3-1.2 2.1-.4.6-.8 1.2-1.3 1.7l-.9.9c-.5.5-1 .8-1.3.9.2-.3.4-.5.7-.8.6-.7 1.2-1.5 1.8-2.3.1-.2.2-.3.3-.5.5-.9.9-1.7 1.2-2.4 0-.1.1-.2.1-.2.3-.8.6-1.4.9-1.3z" fill="#F28A8A"/><path d="M11.203 5.8c.2.2.1.7-.1 1.4-.1.1-.1.3-.2.5-.3.6-.7 1.3-1.2 2.1-.4.6-.8 1.2-1.3 1.7l-.9.9c-.5.5-1 .8-1.3.9.2-.3.4-.5.7-.8.6-.7 1.2-1.5 1.8-2.3.1-.2.2-.3.3-.5.6-.9.9-1.7 1.2-2.4 0-.1.1-.2.1-.2.3-.8.6-1.3.9-1.3-.1 0 0 0 0 0z" fill="#F28B8B"/><path d="M11.203 5.8c.2.2.1.7-.1 1.4-.1.1-.1.3-.2.5-.3.6-.7 1.3-1.2 2.1-.4.6-.8 1.2-1.3 1.7l-.9.9c-.5.5-1 .8-1.3.9.2-.3.4-.5.7-.8.6-.7 1.2-1.5 1.8-2.3.1-.2.2-.3.3-.5.6-.9.9-1.7 1.2-2.4 0-.1.1-.2.1-.2.3-.8.6-1.3.9-1.3-.1 0 0 0 0 0z" fill="#F28B8B"/><path d="M11.203 5.8c.2.2.1.7-.1 1.4-.1.2-.1.3-.2.5-.3.6-.7 1.3-1.2 2.1-.4.6-.8 1.1-1.3 1.7-.3.3-.6.6-.8.9-.5.5-1 .8-1.3.9.2-.3.4-.5.7-.8.6-.7 1.2-1.5 1.8-2.3.1-.2.2-.3.2-.5.6-.9.9-1.7 1.2-2.4 0-.1.1-.2.1-.2.3-.8.6-1.3.9-1.3-.1 0 0 0 0 0z" fill="#F28C8C"/><path d="M11.203 5.8c.2.2.1.7-.1 1.3-.1.2-.1.3-.2.5-.3.7-.7 1.4-1.2 2.2-.4.6-.8 1.1-1.3 1.7-.3.3-.6.6-.8.9-.5.4-1 .8-1.3.9.2-.3.4-.5.7-.8.6-.7 1.2-1.5 1.8-2.3.1-.2.2-.4.3-.5.5-.9.8-1.7 1.1-2.4 0-.1.1-.2.1-.2.3-.8.6-1.3.9-1.3-.1 0 0 0 0 0z" fill="#F28D8D"/><path d="M11.203 5.8c.2.2.1.7-.1 1.3-.1.2-.1.3-.2.5-.3.7-.7 1.4-1.2 2.2-.4.6-.8 1.1-1.3 1.7-.3.3-.5.6-.8.9-.5.4-1 .8-1.3.9.2-.3.4-.5.7-.8.6-.7 1.2-1.5 1.8-2.3.1-.2.2-.4.3-.5.5-.9.8-1.7 1.1-2.4 0-.1.1-.2.1-.2.3-.8.6-1.3.9-1.3-.1 0 0 0 0 0z" fill="#F28D8D"/><path d="M11.203 5.8c.2.2.1.6-.1 1.3-.1.2-.1.3-.2.5-.3.7-.7 1.4-1.2 2.2-.4.6-.8 1.1-1.3 1.7-.3.3-.5.6-.8.9-.5.4-1 .8-1.3.9.2-.3.4-.5.7-.8.6-.7 1.2-1.5 1.7-2.3.2-.2.3-.4.4-.5.5-.9.8-1.7 1.1-2.4 0-.1.1-.2.1-.2.3-.8.6-1.3.9-1.3-.1 0 0 0 0 0z" fill="#F28E8E"/><path d="M11.203 5.8c.1.2.1.6-.1 1.3-.1.2-.1.3-.2.5-.3.7-.7 1.4-1.2 2.2-.4.6-.8 1.1-1.3 1.7-.3.3-.5.6-.8.9-.5.4-1 .8-1.3.9.2-.3.4-.5.7-.8.6-.7 1.2-1.5 1.7-2.3.2-.2.3-.4.4-.5.5-.9.8-1.7 1.1-2.4 0-.1.1-.2.1-.2.3-.8.6-1.3.9-1.3-.1 0 0 0 0 0z" fill="#F28F8F"/><path d="M11.203 5.8c.1.2.1.6-.1 1.3-.1.2-.1.3-.2.5-.3.6-.7 1.4-1.2 2.1-.4.6-.8 1.1-1.3 1.7-.3.3-.5.6-.8.9-.5.4-1 .8-1.3 1 .2-.3.4-.5.7-.8.6-.7 1.2-1.5 1.7-2.3.2-.2.3-.4.4-.5.5-.9.8-1.7 1.1-2.4 0-.1.1-.2.1-.2.3-.8.6-1.3.9-1.3-.1 0 0 0 0 0z" fill="#F29090"/><path d="M11.203 5.8c.1.2.1.6-.1 1.3-.1.2-.1.3-.2.5-.3.6-.6 1.3-1.1 2.1-.4.6-.8 1.1-1.3 1.7-.3.3-.5.6-.8.9-.5.4-1 .8-1.2 1 .2-.2.4-.5.7-.8.6-.7 1.2-1.5 1.7-2.3 0-.2.1-.4.2-.5.5-.9.8-1.7 1.1-2.4 0-.1.1-.2.1-.2.3-.8.6-1.3.9-1.3-.1 0 0 0 0 0z" fill="#F29090"/><path d="M11.202 5.8c.1.2.1.7-.2 1.3-.1.2-.1.3-.2.5-.3.6-.6 1.3-1.1 2.1-.4.5-.8 1.1-1.3 1.7-.3.3-.5.6-.8.9-.5.4-.9.8-1.2 1 .2-.2.4-.5.7-.8.6-.7 1.2-1.5 1.7-2.3l.3-.6c.5-.8.8-1.6 1.1-2.3 0-.1.1-.2.1-.2.3-.7.6-1.3.9-1.3-.1 0 0 0 0 0z" fill="#F29191"/><path d="M11.202 5.8c.1.2.1.7-.2 1.3-.1.2-.1.3-.2.5-.2.6-.6 1.3-1.1 2.1-.4.5-.8 1.1-1.3 1.7-.3.3-.5.6-.8.9-.5.4-.9.7-1.2 1 .2-.2.4-.5.7-.8.6-.7 1.2-1.5 1.7-2.3l.3-.6c.5-.8.8-1.6 1.1-2.3 0-.1.1-.2.1-.2.3-.7.6-1.3.9-1.3-.1 0 0 0 0 0z" fill="#F39292"/><path d="M11.203 5.8c.1.2.1.7-.2 1.3-.1.2-.1.3-.2.5-.2.6-.6 1.3-1.1 2.1-.3.5-.8 1.1-1.2 1.7-.3.3-.5.6-.8.8-.5.4-.9.7-1.2 1 .2-.2.4-.5.7-.8.6-.7 1.2-1.5 1.7-2.3 0-.2.1-.3.2-.5.5-.8.8-1.6 1.1-2.3 0-.1.1-.2.1-.2.3-.7.6-1.3.9-1.3-.1 0 0 0 0 0z" fill="#F39393"/><path d="M11.203 5.8c.1.2.1.7-.2 1.3-.1.2-.1.3-.2.5-.2.6-.6 1.3-1.1 2-.3.5-.8 1.1-1.2 1.7-.3.4-.5.7-.8.9-.5.4-.9.7-1.2 1 .2-.2.4-.5.7-.8.6-.7 1.2-1.5 1.7-2.3.1-.2.1-.3.2-.5.5-.8.9-1.6 1.1-2.3 0-.1.1-.2.1-.2.3-.7.6-1.3.9-1.3-.1 0 0 0 0 0z" fill="#F39393"/><path d="M11.203 5.8c.1.2.1.7-.2 1.3-.1.2-.1.3-.2.5-.2.6-.6 1.3-1.1 2-.3.5-.8 1.1-1.2 1.7-.3.4-.5.7-.8.9-.5.4-.9.7-1.2 1 .2-.2.4-.5.7-.8.6-.7 1.2-1.5 1.7-2.3.1-.2.2-.3.2-.5.5-.8.9-1.6 1.1-2.3 0-.1.1-.2.1-.2.3-.7.6-1.3.9-1.3-.1 0 0 0 0 0z" fill="#F39494"/><path d="M11.203 5.8c.1.2.1.7-.2 1.3-.1.2-.1.3-.2.5-.2.6-.6 1.3-1.1 2-.3.5-.8 1.1-1.2 1.7-.3.3-.5.6-.8.8-.5.4-.9.7-1.2 1 .2-.2.4-.5.7-.8.6-.7 1.2-1.5 1.7-2.3.1-.1.2-.2.2-.4.5-.8.9-1.6 1.1-2.3 0-.1.1-.2.1-.2.3-.7.6-1.3.9-1.3-.1 0 0 0 0 0z" fill="#F39595"/><path d="M11.203 5.8c.1.2.1.7-.2 1.3-.1.2-.1.3-.2.5-.2.6-.6 1.3-1.1 2-.3.5-.7 1.1-1.2 1.7-.3.3-.5.6-.8.8-.4.4-.9.7-1.2 1 .2-.2.4-.5.7-.8.6-.7 1.2-1.5 1.7-2.3.1-.1.2-.2.3-.4.4-.8.8-1.6 1-2.3 0-.1.1-.2.1-.2.3-.7.6-1.3.9-1.3-.1 0 0 0 0 0z" fill="#F39595"/><path d="M11.203 5.8c.1.2.1.7-.2 1.3-.1.2-.1.3-.2.5-.2.6-.6 1.2-1.1 2-.3.5-.7 1.1-1.2 1.7-.2.3-.5.6-.8.8-.4.4-.9.7-1.2 1 .2-.2.4-.5.7-.8.6-.7 1.2-1.5 1.6-2.3.2-.1.3-.2.4-.4.4-.9.8-1.6 1-2.3 0-.1.1-.2.1-.2.3-.7.6-1.3.9-1.3-.1 0 0 0 0 0z" fill="#F39696"/><path d="M11.203 5.8c.1.2 0 .7-.2 1.3-.1.2-.1.3-.2.5-.2.6-.6 1.2-1.1 2-.3.5-.7 1.1-1.2 1.7-.2.3-.5.6-.8.8-.4.4-.9.7-1.2 1 .2-.2.4-.5.7-.8.6-.7 1.2-1.5 1.6-2.2.2-.2.3-.4.4-.5.5-.9.8-1.6 1-2.3 0-.1.1-.2.1-.2.3-.7.6-1.3.9-1.3-.1 0 0 0 0 0z" fill="#F39797"/><path d="M11.203 5.8c.1.2 0 .7-.2 1.3-.1.2-.1.3-.2.5-.2.6-.6 1.2-1.1 2-.3.5-.7 1.1-1.2 1.6-.2.3-.5.6-.8.8-.4.4-.9.7-1.2 1 .2-.2.4-.5.7-.8.6-.7 1.2-1.5 1.6-2.2.2-.1.3-.3.4-.4.5-.9.8-1.6 1-2.3 0-.1.1-.2.1-.2.3-.7.6-1.3.9-1.3-.1 0 0 0 0 0z" fill="#F39898"/><path d="M11.203 5.9c.1.1 0 .6-.2 1.2-.1.2-.1.3-.2.5-.2.6-.6 1.2-1.1 2-.3.5-.7 1.1-1.2 1.6-.2.3-.5.6-.8.8-.4.4-.9.7-1.2 1 .2-.2.4-.5.7-.8.6-.7 1.1-1.5 1.6-2.2.2-.1.3-.3.4-.4.5-.9.8-1.6 1-2.3 0-.1.1-.2.1-.2.3-.7.6-1.3.9-1.2-.1-.1 0-.1 0 0z" fill="#F39898"/><path d="M11.203 5.9c.1.1 0 .6-.2 1.2-.1.2-.1.3-.2.5-.2.6-.6 1.2-1.1 2-.3.5-.7 1.1-1.2 1.6-.2.3-.5.6-.8.8-.4.4-.9.7-1.2 1 .2-.2.4-.5.7-.8.6-.7 1.1-1.5 1.6-2.2.2-.1.3-.3.4-.4.5-.9.8-1.6 1.1-2.3 0-.1.1-.2.1-.2.3-.7.5-1.3.8-1.2-.1 0 0 0 0 0z" fill="#F39999"/><path d="M11.204 5.9c.1.1 0 .6-.2 1.2-.1.2-.1.3-.2.5-.2.6-.6 1.2-1.1 2-.3.5-.7 1.1-1.2 1.6-.2.3-.5.6-.8.8-.4.4-.8.7-1.1 1 .2-.2.4-.5.7-.8.7-.7 1.2-1.4 1.6-2.2.1-.1.2-.3.3-.4.5-.8.8-1.6 1-2.2 0-.1.1-.2.1-.2.4-.8.6-1.4.9-1.3-.1 0 0 0 0 0z" fill="#F39A9A"/><path d="M11.204 5.9c.1.1 0 .6-.2 1.2-.1.2-.1.3-.2.5-.2.6-.6 1.2-1.1 2-.3.5-.7 1.1-1.2 1.6-.2.3-.5.6-.8.8-.4.4-.8.7-1.1 1 .2-.2.4-.5.7-.8.7-.7 1.2-1.4 1.7-2.2 0-.1.1-.3.2-.4.5-.8.8-1.6 1-2.2 0-.1.1-.2.1-.2.4-.8.6-1.4.9-1.3-.1 0 0 0 0 0z" fill="#F39A9A"/><path d="M11.203 5.9c.1.2 0 .6-.2 1.3-.1.2-.1.3-.2.5-.2.6-.6 1.2-1 2-.3.5-.7 1.1-1.2 1.6-.2.3-.5.6-.7.8-.4.4-.8.7-1.1 1 .2-.2.4-.5.7-.8.5-.8 1-1.5 1.5-2.3.1-.2.2-.3.3-.5.5-.8.8-1.6 1-2.2 0-.1.1-.1.1-.2.3-.7.5-1.2.8-1.2-.1 0 0 0 0 0z" fill="#F49B9B"/><path d="M11.203 5.9c.1.2 0 .6-.2 1.3-.1.2-.1.3-.2.5-.2.5-.6 1.2-1 2-.3.5-.7 1.1-1.2 1.6-.2.3-.5.6-.7.8-.4.4-.8.7-1.1 1 .2-.2.4-.5.7-.8.5-.8 1-1.6 1.5-2.3.1-.2.2-.3.3-.5.5-.8.8-1.6 1-2.2 0-.1.1-.1.1-.2.3-.7.5-1.2.8-1.2-.1 0 0 0 0 0z" fill="#F49C9C"/><path d="M11.202 5.9c.1.2 0 .6-.2 1.3-.1.2-.1.3-.2.5-.2.5-.6 1.2-1 1.9-.3.5-.7 1.1-1.1 1.6-.2.3-.5.6-.7.8-.4.4-.8.7-1.1 1 .2-.2.4-.5.7-.8.4-.7.9-1.5 1.4-2.2.1-.2.2-.3.3-.5.5-.8.8-1.6 1-2.2 0-.1.1-.1.1-.2.3-.7.5-1.2.8-1.2-.1 0 0 0 0 0z" fill="#F49D9D"/><path d="M11.202 5.9c.1.2 0 .6-.2 1.3-.1.2-.1.3-.2.5-.2.5-.6 1.2-1 1.9-.3.5-.7 1-1.1 1.6-.2.3-.5.6-.7.8-.4.4-.8.7-1.1 1 .2-.2.4-.5.7-.8.4-.7 1-1.5 1.4-2.2.1-.2.2-.3.3-.5.5-.8.8-1.6 1-2.2 0-.1.1-.1.1-.2.3-.7.5-1.2.8-1.2-.1 0 0 0 0 0z" fill="#F49D9D"/><path d="M11.202 5.9c.1.2 0 .6-.2 1.2-.1.2-.1.3-.2.5-.2.5-.6 1.2-1 1.9-.3.5-.7 1-1.1 1.6-.2.3-.5.6-.7.8-.4.4-.8.7-1.1 1 .2-.2.4-.5.7-.8.5-.7 1-1.4 1.4-2.1.1-.2.2-.3.3-.4.5-.8.8-1.6 1-2.2 0-.1.1-.1.1-.2.3-.8.5-1.3.8-1.3-.1 0 0 0 0 0z" fill="#F49E9E"/><path d="M11.202 5.9c.1.2 0 .6-.2 1.2-.1.1-.1.3-.2.5-.2.5-.6 1.2-1 1.9-.3.5-.7 1-1.1 1.6-.2.3-.5.6-.7.8-.4.4-.8.7-1.1 1 .2-.2.4-.5.7-.8.5-.7 1-1.4 1.4-2.1.1-.2.2-.3.3-.4.4-.8.8-1.6 1-2.2 0-.1.1-.1.1-.2.3-.8.5-1.3.8-1.3-.1 0 0 0 0 0z" fill="#F49F9F"/><path d="M11.202 5.9c.1.2 0 .6-.2 1.2-.1.1-.1.3-.2.5-.2.5-.6 1.2-1 1.9-.3.5-.7 1-1.1 1.6-.2.3-.5.6-.7.8-.4.4-.8.7-1.1 1 .2-.2.4-.5.7-.8.5-.7 1-1.4 1.4-2.1.1-.2.2-.3.3-.4.4-.8.8-1.6 1-2.2 0-.1.1-.1.1-.2.3-.8.5-1.3.8-1.3-.1 0 0 0 0 0z" fill="#F49F9F"/><path d="M11.202 5.9c.1.2 0 .6-.2 1.2-.1.1-.1.3-.2.5-.2.5-.6 1.2-1 1.9-.3.5-.7 1-1.1 1.6-.2.3-.5.6-.7.8-.4.4-.8.7-1.1 1 .2-.2.4-.5.6-.8.6-.7 1.1-1.4 1.5-2.1.1-.2.2-.3.3-.4.4-.8.8-1.5 1-2.2 0-.1.1-.1.1-.2.3-.8.5-1.3.8-1.3-.1 0 0 0 0 0z" fill="#F4A0A0"/><path d="M11.202 5.9c.1.2 0 .6-.2 1.2-.1.1-.1.3-.2.5-.2.5-.6 1.2-1 1.9-.3.5-.7 1-1.1 1.6-.2.3-.5.6-.7.8-.4.4-.8.7-1.1 1 .2-.2.4-.5.6-.8.6-.7 1.1-1.5 1.5-2.2.1-.2.2-.3.2-.4.4-.8.7-1.5 1-2.2 0-.1.1-.1.1-.2.4-.7.6-1.2.9-1.2-.1 0 0 0 0 0z" fill="#F4A1A1"/><path d="M11.202 5.9c.1.2 0 .6-.2 1.2-.1.1-.1.3-.2.5-.2.5-.6 1.2-1 1.9-.3.5-.7 1-1.1 1.6-.2.3-.5.6-.7.8-.4.4-.7.7-1.1 1 .2-.2.4-.5.6-.8.6-.7 1.1-1.5 1.5-2.2.1-.1.2-.3.2-.4.4-.8.7-1.5 1-2.1 0-.1.1-.1.1-.2.4-.8.6-1.3.9-1.3-.1 0-.1 0 0 0z" fill="#F4A2A2"/><path d="M11.202 5.9c.1.2 0 .6-.2 1.2-.1.1-.1.3-.2.5-.2.5-.5 1.2-1 1.9-.3.5-.7 1-1.1 1.6-.2.3-.5.6-.7.8-.4.4-.7.7-1.1 1 .2-.2.4-.5.6-.8.6-.7 1.1-1.5 1.5-2.2.1-.1.2-.3.2-.4.4-.8.7-1.5 1-2.1 0-.1.1-.1.1-.2.4-.8.6-1.3.9-1.3-.1 0-.1 0 0 0z" fill="#F4A2A2"/><path d="M11.202 5.9c.1.2 0 .6-.2 1.2-.1.1-.1.3-.2.5-.2.5-.5 1.2-1 1.9-.3.5-.7 1-1.1 1.6-.2.3-.5.6-.7.8-.4.4-.7.7-1.1 1 .2-.2.4-.5.6-.8.6-.7 1.1-1.5 1.5-2.2.1-.1.2-.3.2-.4.4-.8.7-1.5 1-2.1 0-.1.1-.1.1-.2.4-.8.6-1.3.9-1.3-.1 0-.1 0 0 0z" fill="#F4A3A3"/><path d="M11.203 5.9c.1.2 0 .6-.2 1.2-.1.1-.1.3-.2.5-.2.5-.5 1.1-1 1.9-.3.5-.7 1-1.1 1.6-.2.3-.4.6-.7.8l-1 1c.2-.2.4-.5.6-.8.6-.7 1.1-1.5 1.5-2.2.1-.1.2-.3.2-.4.4-.8.7-1.5 1-2.1 0-.1.1-.1.1-.2.3-.8.5-1.3.8-1.3-.1 0-.1 0 0 0z" fill="#F5A4A4"/><path d="M11.203 5.9c0 .2 0 .6-.2 1.2-.1.1-.1.3-.2.5-.2.5-.5 1.1-1 1.9-.3.5-.7 1-1.1 1.6-.2.3-.4.6-.7.8-.3.4-.7.7-1 1 .2-.2.4-.5.6-.8.6-.7 1.1-1.5 1.5-2.1.1-.1.2-.3.2-.4.4-.8.7-1.5 1-2.1 0-.1.1-.1.1-.2.3-.8.5-1.4.8-1.4-.1 0-.1 0 0 0z" fill="#F5A4A4"/><path d="M11.203 5.9c0 .2 0 .6-.2 1.2-.1.1-.1.3-.2.5-.2.5-.5 1.1-1 1.9-.3.5-.6 1-1.1 1.6-.2.3-.4.6-.7.8-.3.4-.7.7-1 1 .2-.2.4-.5.6-.8.6-.7 1.1-1.5 1.5-2.1.1-.1.2-.3.2-.4.4-.8.7-1.5 1-2.1 0-.1.1-.1.1-.2.3-.8.5-1.4.8-1.4-.1 0-.1 0 0 0z" fill="#F5A5A5"/><path d="M11.203 5.9c0 .2 0 .6-.2 1.2-.1.1-.1.3-.2.5-.2.5-.5 1.1-1 1.8-.3.5-.6 1-1.1 1.6-.2.3-.4.6-.7.8-.3.4-.7.7-1 1 .2-.2.4-.5.6-.8.6-.7 1.1-1.5 1.5-2.1.1-.1.2-.3.2-.4.4-.8.7-1.5 1-2.1 0-.1.1-.1.1-.2.3-.7.5-1.3.8-1.3-.1 0-.1 0 0 0z" fill="#F5A6A6"/><path d="M11.204 5.9c0 .2 0 .6-.2 1.2-.1.1-.1.3-.2.5-.2.5-.5 1.1-1 1.8-.3.5-.6 1-1 1.5-.2.3-.4.6-.7.8-.3.4-.7.7-1 1 .2-.2.4-.5.6-.8.6-.7 1.1-1.5 1.5-2.1.1-.1.2-.3.2-.4.4-.8.7-1.5 1-2.1 0-.1.1-.1.1-.2.2-.6.4-1.2.7-1.2-.1 0-.1 0 0 0z" fill="#F5A7A7"/><path d="M11.204 5.9c0 .2 0 .6-.2 1.2-.1.1-.1.3-.2.5-.2.5-.5 1.1-1 1.8-.3.5-.6 1-1 1.5-.2.3-.4.6-.7.8-.3.4-.7.7-1 1 .2-.2.4-.5.6-.7.6-.7 1.1-1.5 1.4-2.1.1-.1.2-.3.2-.4.4-.8.7-1.5 1-2.1 0-.1.1-.1.1-.2.3-.7.6-1.3.8-1.3-.1 0-.1 0 0 0z" fill="#F5A7A7"/><path d="M7.104 12.7c.2-.2.4-.5.6-.7.7-.9 1.3-1.8 1.7-2.5.4-.8.7-1.5 1-2.1.3-.8.6-1.4.8-1.4 0 .2-.1.8-.4 1.6-.3.8-1 2-2 3.4-.5.6-1.1 1.2-1.7 1.7z" fill="#F5A8A8"/><defs><radialGradient id="lpaint0_radial_203_5684" cx="0" cy="0" r="1" gradientUnits="userSpaceOnUse" gradientTransform="rotate(-47.054 13.655 -1.956) scale(17.1431 11.3232)"><stop offset=".323" stop-color="#E51818"/><stop offset=".438" stop-color="#E11818"/><stop offset=".547" stop-color="#D61717"/><stop offset=".653" stop-color="#C31515"/><stop offset=".757" stop-color="#A81313"/><stop offset=".861" stop-color="#851010"/><stop offset=".962" stop-color="#5C0C0C"/><stop offset="1" stop-color="#4A0B0B"/></radialGradient><radialGradient id="lpaint1_radial_203_5684" cx="0" cy="0" r="1" gradientUnits="userSpaceOnUse" gradientTransform="rotate(-51.72 7.141 -11.047) scale(7.42162 4.39328)"><stop offset=".729" stop-color="#9BCC00"/><stop offset=".778" stop-color="#94C401"/><stop offset=".852" stop-color="#82AF05"/><stop offset=".943" stop-color="#658D0B"/><stop offset="1" stop-color="#4F730F"/></radialGradient></defs></symbol><symbol viewBox="0 0 22 22" id="phone"><path d="M17.181.994c-.4 0-.7.3-.7.8 0 .2.1.4.2.5l1.7 1.7h-5.7c-.4 0-.7.3-.7.7 0 .4.3.8.7.8h5.7l-1.7 1.7c-.3.3-.3.8 0 1.1.3.3.8.3 1.1 0l3-3c.3-.3.3-.8 0-1.1l-3-3c-.2-.1-.4-.2-.6-.2zm-11.2 0c-.3 0-.6 0-1 .1l-1.2.4c-1.2.3-2.2 1.3-2.5 2.6-.8 2.8.1 6.1 2.3 9.9 2.2 3.7 4.7 6.1 7.5 6.9 1.3.3 2.7 0 3.6-.9l.9-.8c1-.9 1.2-2.5.3-3.6l-1.3-1.8c-.7-.9-1.9-1.4-3.1-1l-2 .6c-.1 0-.3-.1-.5-.2-.3-.3-.8-.8-1.2-1.6-.4-.9-.6-1.5-.7-1.8-.1-.4-.1-.4-.1-.5 0-.1 0-.1.1-.1l1.5-1.4c.9-.8 1.2-2.1.7-3.2l-.9-2c-.5-.9-1.4-1.5-2.4-1.6zm-.1 1.5c.5 0 .9.3 1.1.7l.9 2c.2.5.1 1-.3 1.4l-1.5 1.4c-.3.3-.5.7-.6 1.1 0 .1 0 .5.1 1s.4 1.2 1 2.1c.5.9 1 1.5 1.5 2 .2.2.9.9 1.9.6l2-.6c.5-.2 1.1 0 1.4.5l1.3 1.8c.4.5.3 1.2-.2 1.6l-.9.8c-.6.5-1.4.7-2.2.5-2.3-.6-4.6-2.7-6.6-6.2s-2.7-6.5-2.1-8.7c.2-.7.8-1.4 1.6-1.6l1.2-.4h.4z"/></symbol><symbol viewBox="0 0 14 14" id="plus"><path d="M13.3 7.8H.7C.3 7.8 0 7.4 0 7s.3-.7.7-.7h12.5c.5 0 .8.3.8.7 0 .4-.3.8-.7.8z"/><path d="M7.8.7v12.5c0 .5-.4.8-.8.8s-.7-.3-.7-.7V.7c0-.4.3-.7.7-.7.4 0 .8.3.8.7z"/></symbol><symbol viewBox="0 0 24 18" id="scooter"><path d="M15.745.8h-2.5c-.4 0-.8.3-.8.7 0 .4.3.8.7.8h1.9c.3.7.9 2.8.9 5.3 0 1.3-.3 2.2-.6 2.6-.3.5-.7.6-1.2.6h-3.4c-.5 0-.8-.3-.8-.7V2.6c0-.5-.3-.8-.7-.8h-6c-.5 0-.8.3-.8.8v4.8h-.7c-.5-.1-.8.2-.8.6 0 .5.3.8.7.8h.9c-.3.6-.6 1.4-.6 2.3 0 .2.1.4.2.5 0 0 .5.6 1.4 1.3-.3.5-.6 1-.6 1.6 0 1.5 1.2 2.7 2.8 2.7 1.3 0 2.4-.9 2.7-2.1.4.1.8.1 1.2.1h7c.3 1.1 1.4 2 2.6 2 1.5 0 2.8-1.2 2.8-2.7 0-.2 0-.4-.1-.6l.9-.9c.2-.2.3-.6.1-.9 0 0-1-1.8-3-2.3-.1-2.8-1.1-5.1-2-6.7h.8c.1 0 .3-.1.3-.3V1.6c0-.1-.1-.3-.3-.3h-1.4c-.2 0-.5.1-.6.2-.2-.3-.3-.4-.4-.5-.3-.1-.4-.2-.6-.2zm-11.8 2.5h1.5v1.3c0 .4.3.8.7.8.5-.1.8-.4.8-.8V3.3h1.5v4h-4.5v-4zm13.4 2.1c.6 1.4 1.1 3.2 1.1 5.2 0 .4.3.7.8.8 1.1 0 1.7.7 2 1.2l-.3.2h-2.2c-.8 0-1.4.4-1.8.8-.1.1-.1.1-.1.2h-7.3c-3.2 0-5.7-2.6-6-3 .1-1.1.7-1.8 1-2h4v1.3c0 1.2 1 2.3 2.3 2.3h3.5c.9 0 1.8-.4 2.4-1.3.6-.8.9-2 .9-3.5-.2-.8-.2-1.5-.3-2.2zm-12.6 8.4c.6.4 1.4.8 2.2 1-.1.6-.6 1-1.2 1-.7 0-1.3-.6-1.3-1.3 0-.2.1-.5.3-.7zm14 .5h1.7v.3c0 .7-.6 1.3-1.3 1.3-.7 0-1.2-.5-1.2-1.1 0 0 0-.1.1-.1.1-.3.2-.4.7-.4z"/></symbol><symbol viewBox="0 0 22 20" id="signature"><path d="M4.99.5c-1.3 0-2.4.9-3 2.2-.6 1.3-1 2.9-1 4.8 0 1.8.4 3.4 1.1 4.8.1.1.2.2.2.3l-1.1 1.1c-.3.2-.4.7-.1 1.1.2.3.7.4 1.1.1 0 0 .5-.5 1.2-1.1.7.4 1.5.7 2.4.7 1.8 0 3.6-.9 5-2.2.5.4 1.1.7 1.8.7.9 0 1.6-.5 2.1-1s.9-1.2 1.2-1.9c.2-.4.3-.7.4-1v.3c.1.5.1 1.1.3 1.5.1.2.2.5.4.7.2.2.6.4.9.4.5 0 .9-.3 1.1-.6.2-.3.3-.6.5-.9.3-.6.5-1.2 1.1-1.7.3-.3.4-.7.1-1.1-.3-.4-.7-.4-1.1-.1-.9.7-1.3 1.6-1.6 2.2-.1.2-.1.3-.2.4-.1-.3-.2-.7-.2-1.1-.1-.5-.1-1-.2-1.4 0-.2-.1-.4-.2-.7.1-.2-.2-.5-.7-.5-.5 0-.7.3-.9.5-.2.2-.2.5-.3.7-.2.5-.5 1.1-.7 1.7-.3.6-.6 1.2-1 1.5-.3.4-.7.5-1 .5-.3 0-.5-.1-.8-.2 1.3-1.4 2.2-3.1 2.2-4.7 0-.5-.2-1.1-.5-1.6-.4-.5-1-.9-1.7-.9-1 0-1.8.6-2.2 1.3-.4.8-.6 1.8-.6 3 0 .9.2 2 .7 2.9-1.2 1.1-2.6 1.9-4 1.9-.5 0-1-.1-1.3-.4 1.7-2 3.6-4.9 3.6-8.4 0-.6-.1-1.5-.6-2.2-.5-.7-1.2-1.6-2.4-1.6zm0 1.5c.6 0 .9.3 1.1.7.3.5.4 1.1.4 1.5 0 2.8-1.6 5.4-3.1 7.2-.5-1-.9-2.4-.9-3.9 0-1.8.3-3.2.8-4.2s1-1.3 1.7-1.3zm6.8 3.5c.3 0 .4.1.5.3.1.2.2.5.2.7 0 .9-.7 2.2-1.6 3.4-.2-.5-.4-1.1-.4-1.6 0-1 .2-1.8.4-2.2.3-.5.5-.6.9-.6zM1.79 18c-.4 0-.8.3-.8.7 0 .5.3.8.8.8h18.5c.4 0 .8-.3.8-.7 0-.4-.3-.8-.7-.8H1.79z"/></symbol><symbol viewBox="0 0 20 20" id="sup"><path d="M4.7 0c-.2 0-.4.1-.5.3l-.6.7c-.8.9-.8 2.2-.2 3.2.3.4.3.8 0 1.2l-.8 1.5c-.2.4-.1.8.2 1 .4.2.8.1 1-.2l.9-1.5c.5-.9.5-2-.1-2.9-.2-.4-.2-.9.1-1.3l.6-.7c.3-.3.2-.8-.1-1.1-.1-.1-.3-.2-.5-.2zm3 0c-.2 0-.4.1-.5.3l-.6.7c-.8.9-.8 2.2-.2 3.2.3.4.3.8 0 1.2l-.8 1.5c-.2.4-.1.8.2 1 .4.2.8.1 1-.2l.9-1.5c.5-.9.5-2-.1-2.9-.2-.4-.2-.9.1-1.3l.6-.7c.3-.3.2-.8-.1-1.1-.1-.1-.3-.2-.5-.2zm3 0c-.2 0-.4.1-.6.3l-.5.7c-.8.9-.8 2.2-.2 3.2.3.4.3.8 0 1.2l-.8 1.5c-.2.4-.1.8.2 1 .4.2.8.1 1-.2l.9-1.5c.5-.9.5-2-.1-2.9-.3-.4-.3-1 .1-1.4l.6-.7c.3-.3.2-.8-.1-1.1-.1 0-.3-.1-.5-.1zM19 3.8c-.2 0-.4.1-.5.2l-6 6H1.8c-1 0-1.8.8-1.8 1.8C0 16.3 3.7 20 8.3 20h4.5c2.3 0 4.1-1 5.4-2.5C19.4 16 20 14 20 11.8c0-1-.8-1.8-1.8-1.8h-3.7l5-5c.3-.3.3-.8 0-1.1-.1-.1-.3-.2-.5-.1zM1.8 11.5h16.5c.1 0 .3.1.3.3 0 1.9-.6 3.6-1.5 4.8-.9 1.2-2.4 1.9-4.2 1.9H8.3c-3.7 0-6.8-3-6.8-6.7 0-.2.1-.3.3-.3z"/></symbol><symbol viewBox="0 0 16 20" id="user"><path d="M8 0C5.2 0 3 2.2 3 5s2.2 5 5 5 5-2.2 5-5-2.2-5-5-5zm0 1.5c1.9 0 3.5 1.6 3.5 3.5S9.9 8.5 8 8.5 4.5 6.9 4.5 5 6.1 1.5 8 1.5zM2.3 12C1 12 0 13 0 14.3v.6c0 1.5.9 2.8 2.4 3.7C3.9 19.5 5.7 20 8 20s4.2-.5 5.6-1.5c1.4-1 2.4-2.2 2.4-3.7v-.6c0-1.2-1-2.3-2.3-2.3H2.3v.1zm0 1.5h11.5c.4 0 .8.3.8.8v.6c0 .8-.5 1.7-1.7 2.4S10 18.5 8 18.5c-2 0-3.7-.5-4.8-1.2-1.1-.7-1.7-1.6-1.7-2.4v-.6c0-.5.3-.8.8-.8z"/></symbol><symbol viewBox="0 0 22 16" id="usercart"><path d="M3.25 0c-1.3 0-2.3 1-2.3 2.3v11.5c0 1.2 1 2.2 2.3 2.2h15.5c1.2 0 2.3-1 2.3-2.3V2.3c-.1-1.3-1.1-2.3-2.3-2.3H3.25zm0 1.5h15.5c.4 0 .8.3.8.8v11.5c0 .4-.3.8-.8.8H3.25c-.4 0-.8-.3-.8-.8V2.3c0-.5.3-.8.8-.8zm3.7 3c-.8 0-1.5.7-1.5 1.5s.7 1.5 1.5 1.5 1.5-.7 1.5-1.5-.7-1.5-1.5-1.5zm5.3 1c-.4 0-.8.3-.8.7 0 .4.3.8.7.8h4.5c.4 0 .8-.3.8-.7 0-.4-.3-.8-.7-.8h-4.5zm-7 3c-.4 0-.8.3-.8.8 0 .8 0 2.3 2.5 2.3 2.4 0 2.5-1.5 2.5-2.3 0-.4-.3-.8-.8-.8h-3.4zm7 .5c-.4 0-.8.3-.8.7 0 .4.3.8.7.8h4.5c.4 0 .8-.3.8-.7 0-.4-.3-.8-.7-.8h-4.5z"/></symbol><symbol viewBox="0 0 21 21" id="video"><path d="M10.023.674c-5.5 0-10 4.5-10 10s4.5 10 10 10 10-4.5 10-10-4.5-10-10-10zm0 1.5c4.7 0 8.5 3.8 8.5 8.5s-3.8 8.5-8.5 8.5-8.5-3.8-8.5-8.5 3.8-8.5 8.5-8.5zm-2.3 4.1c-.6 0-1.2.6-1.2 1.2v6.3c0 .9 1 1.5 1.8 1.1l6-3.2c.9-.4.9-1.8 0-2.2l-6-3.2h-.6zm.3 1.6l5.2 2.8-5.2 2.8v-5.6z"/></symbol><symbol viewBox="0 0 21 21" id="whatsapp"><path d="M10.059.674c-5.5 0-10 4.5-10 10 0 1.6.4 3.2 1.1 4.5l-1.1 3.9c-.3.9.6 1.8 1.5 1.5l3.9-1.1c1.4.8 3 1.2 4.6 1.2 5.5 0 10-4.5 10-10s-4.5-10-10-10zm0 1.5c4.7 0 8.5 3.8 8.5 8.5s-3.8 8.5-8.5 8.5c-1.5 0-2.9-.4-4.1-1.1-.2-.1-.4-.1-.6-.1l-3.7 1 1-3.7c.1-.2 0-.4-.1-.6-.7-1.2-1.1-2.6-1.1-4.1.1-4.6 3.9-8.4 8.6-8.4zm-3.4 4c-.1 0-.4.1-.6.3-.2.2-.9.8-.9 2s.9 2.3 1 2.5c.1.2 1.7 2.6 4.1 3.6 2 .8 2.4.6 2.9.6.4 0 1.4-.6 1.6-1.1.2-.6.2-1 .1-1.1-.1-.1-.2-.2-.5-.3l-1.6-.8c-.2-.1-.4-.1-.5.1-.2.2-.6.8-.8.9-.1.2-.3.2-.5.1s-1-.4-1.9-1.2c-.7-.6-1.2-1.4-1.3-1.7-.2-.2 0-.4.1-.5.1-.1.2-.3.3-.4.1-.1.2-.2.2-.4.1-.2 0-.3 0-.4 0-.1-.5-1.3-.7-1.8-.2-.4-.4-.4-.5-.4h-.5z"/></symbol></svg>